<?xml version="1.0" encoding="utf-8"?>
<!-- Generator: Adobe Illustrator 24.0.0, SVG Export Plug-In . SVG Version: 6.00 Build 0)  -->
<svg version="1.1" id="Layer_1" xmlns="http://www.w3.org/2000/svg" xmlns:xlink="http://www.w3.org/1999/xlink" x="0px" y="0px"
	 viewBox="0 0 120 120" style="enable-background:new 0 0 120 120;" xml:space="preserve">
<style type="text/css">
	.st0{fill:#999999;}
</style>
<title>Asset 34</title>
<g>
	<g>
		<path class="st0" d="M-23.5-20.1c0.9,0.2,1.7,0.4,2.6,0.6c0,0,0,0,0,0C-21.8-19.6-22.7-19.8-23.5-20.1
			C-23.5-20.1-23.5-20.1-23.5-20.1L-23.5-20.1z"/>
	</g>
</g>
<g>
	<g>
		<path class="st0" d="M-0.4,12.4C-0.4,12.4-0.4,12.3-0.4,12.4C-0.5,12.3-0.5,12.4-0.4,12.4L-0.4,12.4z"/>
	</g>
</g>
<g>
	<g>
		<path class="st0" d="M69.6,31C69.1,42.8,61.1,52.9,50.7,58c-12,5.9-25.6,5.6-38.5,3.9c-0.5-0.1-0.6,0.8-0.1,0.8
			c13.6,2,28.7,2.1,40.9-5c9.7-5.6,16.9-15.3,17.4-26.8C70.4,30.4,69.6,30.4,69.6,31L69.6,31z"/>
	</g>
</g>
<g>
	<g>
		<path class="st0" d="M11.2,57.7c-2,1.6-4,3.1-6,4.7c-0.1,0.1-0.1,0.3,0,0.4c1.8,2.1,3.9,3.7,6.4,5c0.2,0.1,0.4,0,0.4-0.2
			c0.3-3.3,0.6-6.8,0.1-10.1c0-0.2-0.4-0.2-0.4,0.1c-0.1,3.4,0.1,6.7-0.2,10.1c0.1-0.1,0.3-0.2,0.4-0.2c-1-0.5-2-1.1-2.9-1.7
			c-0.5-0.4-2.8-1.9-2.9-2.7c-0.1-0.8,1.7-1.7,2.3-2.2c1.1-0.9,2.2-1.7,3.3-2.6C11.9,57.9,11.4,57.4,11.2,57.7L11.2,57.7z"/>
	</g>
</g>
<g>
	<path d="M20.5,17.7v0.4h-8v-0.4h6.2c0.1-0.5,0.2-1,0.2-1.4l-5.5,0.2l-0.1-0.4l5.6-0.2c0-0.3,0-0.6,0-0.9v-0.2h-5.4v-0.4h5.9V15
		c0,0.7,0,1.5-0.2,2.7H20.5z M14,22.2h5.8v0.4h-6.3v-2H19v-1h-5.5v-0.4h6.1v1.9H14V22.2z"/>
	<path d="M27.2,18.5c-1.5,0.2-2.8,0.3-4.3,0.3h-0.7v-2.4h3.4v-1.4h-3.5v-0.4h4v2.3h-3.4v1.5h0.2c1.5,0,2.7,0,4.3-0.3L27.2,18.5z
		 M23.1,19.9h5.9v2.9h-0.5v-2.5h-5.3V19.9z M28.9,13.9v5.4h-0.5v-5.4H28.9z"/>
	<path d="M36.1,16.5c0,1.6,1.3,3.2,2.5,3.8l-0.3,0.4c-1-0.5-2-1.6-2.4-3c-0.4,1.4-1.4,2.6-2.4,3.1l-0.3-0.4c1.2-0.6,2.4-2.3,2.4-3.9
		v-1.8h0.5V16.5z M40.3,13.9v8.9h-0.5v-8.9H40.3z"/>
	<path d="M46.7,17.9c-0.8,0-1.5,0-2.1,0l-0.1-0.4c1.3,0,3.3,0,4.8-0.3l0,0.4c-0.7,0.1-1.4,0.2-2.1,0.3v1.6h-0.5V17.9z M45,15.6
		c0-0.8,0.8-1.3,1.9-1.3s1.9,0.5,1.9,1.3c0,0.8-0.8,1.3-1.9,1.3S45,16.4,45,15.6z M45.5,15.6c0,0.5,0.6,0.9,1.4,0.9
		c0.9,0,1.4-0.4,1.4-0.9s-0.6-0.9-1.4-0.9C46.1,14.6,45.5,15,45.5,15.6z M51.4,19.8h0.5v2.9h-5.8v-2.9h0.5v1h4.7V19.8z M51.4,21.2
		h-4.7v1h4.7V21.2z M49.9,18.4v-4.3h0.5v5.3h-0.5v-0.6h-1.7v-0.4H49.9z M51.9,13.9v5.5h-0.5v-5.5H51.9z"/>
	<path d="M57.1,19.9c0.4,0,0.7-0.1,1.1-0.1l0,0.4c-1.4,0.2-3.3,0.3-4.5,0.3l-0.1-0.5c0.3,0,0.7,0,1,0v-4.4h-0.8v-0.4h4.1v0.4h-0.8
		V19.9z M55.2,20c0.5,0,0.9,0,1.4-0.1v-4.4h-1.4V20z M59.1,14.2h0.5v8.1h-0.5v-4.4h-1.4v-0.5h1.4V14.2z M61.3,13.9v8.9h-0.5v-8.9
		H61.3z"/>
	<path d="M67.7,17.7c0,1.9-0.9,3-2.2,3c-1.3,0-2.2-1.2-2.2-3c0-1.8,0.9-3,2.2-3C66.8,14.7,67.7,15.9,67.7,17.7z M63.8,17.7
		c0,1.5,0.7,2.6,1.7,2.6c1,0,1.7-1.1,1.7-2.6c0-1.5-0.7-2.6-1.7-2.6C64.5,15.1,63.8,16.2,63.8,17.7z M70.2,13.9v8.9h-0.5v-8.9H70.2z
		"/>
	<path d="M75.2,16.8c0,1.5,1.3,3.1,2.5,3.6l-0.3,0.4c-1-0.5-2-1.6-2.4-2.9c-0.4,1.3-1.4,2.5-2.4,3.1l-0.3-0.4
		c1.1-0.6,2.4-2.3,2.4-3.8v-1.5h-2.2v-0.5h5v0.5h-2.2V16.8z M79.4,13.9v8.9h-0.5v-8.9H79.4z"/>
	<path d="M89.4,21.2v0.5h-8.1v-0.5h3.7v-1.9h-2.7v-2.6h5.4v-1.6h-5.5v-0.4h6v2.5h-5.4v1.7h5.6v0.4h-2.9v1.9H89.4z"/>
	<path d="M97.6,17.7c0,1.9-0.9,3-2.2,3c-1.3,0-2.2-1.2-2.2-3c0-1.8,0.9-3,2.2-3C96.7,14.7,97.6,15.9,97.6,17.7z M93.7,17.7
		c0,1.5,0.7,2.6,1.7,2.6c1,0,1.7-1.1,1.7-2.6c0-1.5-0.7-2.6-1.7-2.6C94.4,15.1,93.7,16.2,93.7,17.7z M100,13.9v8.9h-0.5v-8.9H100z"
		/>
	<path d="M110,18.4v0.4h-8v-0.4h3.7v-1.2H103v-2.9h6v0.4h-5.4v2h5.5v0.4h-2.8v1.2H110z M109,21.2c0,1-1.1,1.6-3,1.6s-3-0.6-3-1.6
		c0-1,1.1-1.6,3-1.6S109,20.2,109,21.2z M108.5,21.2c0-0.7-1-1.1-2.5-1.1c-1.5,0-2.5,0.4-2.5,1.1s1,1.1,2.5,1.1
		C107.5,22.4,108.5,21.9,108.5,21.2z"/>
</g>
</svg>
