<svg xmlns="http://www.w3.org/2000/svg" xmlns:xlink="http://www.w3.org/1999/xlink" viewBox="0 0 52.77 81.28"><defs><style>.cls-1{fill:url(#linear-gradient);}.cls-2{fill:url(#linear-gradient-2);}.cls-3{fill:url(#linear-gradient-3);}.cls-4{fill:url(#linear-gradient-4);}</style><linearGradient id="linear-gradient" y1="75.95" x2="52.77" y2="75.95" gradientUnits="userSpaceOnUse"><stop offset="0" stop-color="#4a017d"/><stop offset="1" stop-color="#f4136b"/></linearGradient><linearGradient id="linear-gradient-2" x1="1.13" y1="25" x2="51.13" y2="25" xlink:href="#linear-gradient"/><linearGradient id="linear-gradient-3" x1="15.13" y1="25" x2="37.13" y2="25" xlink:href="#linear-gradient"/><linearGradient id="linear-gradient-4" x1="37.82" y1="11.39" x2="41.82" y2="11.39" xlink:href="#linear-gradient"/></defs><title>Asset 1</title><g id="Layer_2" data-name="Layer 2"><g id="Layer_1-2" data-name="Layer 1"><path class="cls-1" d="M2.7,76.57a2.58,2.58,0,1,1,0-5.16,2.58,2.58,0,1,1,0,5.16Zm0-.57a2,2,0,1,0,0-4,2,2,0,1,0,0,4Zm6,4.48V81h-7V77.67H2.3v2.81Zm-.36-2H7.72V70.64h.64Zm12,.72v.54H10.73v-.54Zm-.88-2.52a6.18,6.18,0,0,1-4-3.22,6.16,6.16,0,0,1-4,3.22l-.3-.54c1.53-.31,3.95-1.9,3.95-3.88v-.85h.66v.85c0,2,2.46,3.58,4,3.88Zm3.54,1.38a26.2,26.2,0,0,0,5-.37l.08.54a27.28,27.28,0,0,1-5.11.37h-.8v-7H27.2v.54H22.9v2.47h4v.54h-4v2.89Zm8.67-2.5H29.88v5.7h-.64V70.62h.64V75h1.85Zm10.71,3.49v.54H32.81v-.54Zm-2-6.69H33.9v-.54h7.2v1A25.72,25.72,0,0,1,40.66,78L40,77.92a25.2,25.2,0,0,0,.43-5.13Zm8.7,3.74a19.29,19.29,0,0,1-4.11.36h-.66v-2.9h3.33V71.9H44.35v-.53h4v2.72H45V76h0a18.44,18.44,0,0,0,4-.36Zm-3.25,1.46h6.86v3.53H45.91Zm.62,3h5.63V78.11H46.53Zm6.24-9.93V77h-.61V74H50.37v2.85h-.61v-6h.61v2.63h1.79V70.64Z"/><path class="cls-2" d="M41.13,1a9,9,0,0,1,9,9V40a9,9,0,0,1-9,9h-30a9,9,0,0,1-9-9V10a9,9,0,0,1,9-9h30m0-1h-30a10,10,0,0,0-10,10V40a10,10,0,0,0,10,10h30a10,10,0,0,0,10-10V10a10,10,0,0,0-10-10Z"/><path class="cls-3" d="M26.13,15a10,10,0,1,1-10,10,10,10,0,0,1,10-10m0-1a11,11,0,1,0,11,11,11,11,0,0,0-11-11Z"/><path class="cls-4" d="M39.82,10.39a1,1,0,1,1-1,1,1,1,0,0,1,1-1m0-1a2,2,0,1,0,2,2,2,2,0,0,0-2-2Z"/></g></g></svg>