<svg xmlns="http://www.w3.org/2000/svg" xmlns:xlink="http://www.w3.org/1999/xlink" viewBox="0 0 170 170"><defs><style>.cls-1{fill:url(#linear-gradient);}.cls-2{fill:url(#linear-gradient-2);}.cls-3{fill:url(#linear-gradient-3);}.cls-4{fill:url(#linear-gradient-4);}.cls-5{fill:none;}</style><linearGradient id="linear-gradient" x1="58.53" y1="120.9" x2="111.3" y2="120.9" gradientUnits="userSpaceOnUse"><stop offset="0" stop-color="#4a017d"/><stop offset="1" stop-color="#f4136b"/></linearGradient><linearGradient id="linear-gradient-2" x1="59.66" y1="69.95" x2="109.66" y2="69.95" xlink:href="#linear-gradient"/><linearGradient id="linear-gradient-3" x1="73.66" y1="69.95" x2="95.66" y2="69.95" xlink:href="#linear-gradient"/><linearGradient id="linear-gradient-4" x1="96.35" y1="56.34" x2="100.35" y2="56.34" xlink:href="#linear-gradient"/></defs><title>Asset 2</title><g id="Layer_2" data-name="Layer 2"><g id="Layer_1-2" data-name="Layer 1"><path class="cls-1" d="M61.23,121.52a2.58,2.58,0,1,1,2.7-2.59A2.55,2.55,0,0,1,61.23,121.52Zm0-.56a2,2,0,1,0-2.09-2A2,2,0,0,0,61.23,121Zm6,4.47V126h-7v-3.35h.63v2.81Zm-.36-2h-.64v-7.86h.64Zm12,.72v.54H69.26v-.54Zm-.88-2.52a6.19,6.19,0,0,1-4-3.21,6.17,6.17,0,0,1-4,3.21l-.3-.54c1.53-.31,4-1.89,4-3.87v-.85h.66v.85c0,2,2.46,3.57,4,3.87ZM81.59,123a25.42,25.42,0,0,0,5-.37l.08.54a26.46,26.46,0,0,1-5.11.37h-.8v-7h4.94v.54h-4.3v2.47h4v.54h-4V123Zm8.68-2.49H88.41v5.69h-.64V115.57h.64V120h1.86ZM101,124v.54H91.34V124Zm-2-6.7H92.43v-.54h7.2v.95a25.86,25.86,0,0,1-.44,5.22l-.63-.09a25.15,25.15,0,0,0,.43-5.13Zm8.7,3.75a20,20,0,0,1-4.11.35h-.66v-2.9h3.33v-1.68h-3.37v-.52h4v2.72h-3.33v1.86h0a19.07,19.07,0,0,0,4-.36Zm-3.25,1.46h6.86v3.52h-6.86Zm.63,3h5.62v-2.45h-5.62Zm6.23-9.93V122h-.61v-3H108.9v2.86h-.61v-6h.61v2.62h1.79v-2.82Z"/><path class="cls-2" d="M99.66,46a9,9,0,0,1,9,9V85a9,9,0,0,1-9,9h-30a9,9,0,0,1-9-9V55a9,9,0,0,1,9-9h30m0-1h-30a10,10,0,0,0-10,10V85a10,10,0,0,0,10,10h30a10,10,0,0,0,10-10V55a10,10,0,0,0-10-10Z"/><path class="cls-3" d="M84.66,60a10,10,0,1,1-10,10,10,10,0,0,1,10-10m0-1a11,11,0,1,0,11,11,11,11,0,0,0-11-11Z"/><path class="cls-4" d="M98.35,55.34a1,1,0,1,1-1,1,1,1,0,0,1,1-1m0-1a2,2,0,1,0,2,2,2,2,0,0,0-2-2Z"/><rect class="cls-5" width="170" height="170"/></g></g></svg>