<svg xmlns="http://www.w3.org/2000/svg" viewBox="0 0 170 170"><defs><style>.cls-1{fill:#d3c4c2;}.cls-2{fill:none;}</style></defs><title>인스타그램</title><g id="Layer_2" data-name="Layer 2"><g id="Layer_1-2" data-name="Layer 1"><path class="cls-1" d="M99.66,47a8,8,0,0,1,8,8V85a8,8,0,0,1-8,8h-30a8,8,0,0,1-8-8V55a8,8,0,0,1,8-8h30m0-2h-30a10,10,0,0,0-10,10V85a10,10,0,0,0,10,10h30a10,10,0,0,0,10-10V55a10,10,0,0,0-10-10Z"/><path class="cls-1" d="M84.66,60a10,10,0,1,1-10,10,10,10,0,0,1,10-10m0-2a12,12,0,1,0,12,12,12,12,0,0,0-12-12Z"/><path class="cls-1" d="M98.35,54.34a2,2,0,1,0,2,2,2,2,0,0,0-2-2Z"/><rect class="cls-2" width="170" height="170"/><path class="cls-1" d="M61.08,121.71a2.66,2.66,0,1,1,2.82-2.66A2.64,2.64,0,0,1,61.08,121.71Zm0-.85a1.8,1.8,0,1,0-1.83-1.81A1.77,1.77,0,0,0,61.08,120.86Zm6.11,4.51v.8H59.94v-3.45h1v2.65Zm-.33-1.85h-1v-7.85h1Zm12,.64V125H69.08v-.81Zm-.93-2.28a5.81,5.81,0,0,1-4-3.11,5.89,5.89,0,0,1-4,3.11l-.45-.82c1.89-.37,3.91-2,3.91-3.82v-.83h1v.83c0,1.83,2,3.46,3.93,3.82ZM81.57,123a27.67,27.67,0,0,0,4.83-.35l.1.79a27.4,27.4,0,0,1-5.08.36h-.84v-7.2h5v.81h-4v2.22h3.79v.79H81.57Zm8.6-2.22H88.39v5.6h-1V115.65h1V120h1.78ZM100.89,124v.81H91.17V124Zm-2.27-6.43H92.21v-.81h7.38v1.08a26.42,26.42,0,0,1-.42,5.24l-1-.1a24,24,0,0,0,.44-5.14Zm8.82,3.69a20.94,20.94,0,0,1-4,.31h-.7v-3.06h3.07v-1.39h-3.1v-.79h4v2.93h-3.08v1.52a17.75,17.75,0,0,0,3.71-.31Zm-3.23,1.31h7.06v3.67h-7.06Zm1,2.88h5.14v-2.1h-5.14Zm6.1-9.83v6.43h-.94v-2.89h-1.44v2.75H108v-6.08h.94v2.53h1.44v-2.74Z"/></g></g></svg>