<svg xmlns="http://www.w3.org/2000/svg" xmlns:xlink="http://www.w3.org/1999/xlink" viewBox="0 0 170 170"><defs><style>.cls-1{fill:url(#linear-gradient);}.cls-2{fill:url(#linear-gradient-2);}.cls-3{fill:url(#linear-gradient-3);}.cls-4{fill:none;}.cls-5{fill:url(#linear-gradient-4);}</style><linearGradient id="linear-gradient" x1="59.66" y1="69.95" x2="109.66" y2="69.95" gradientUnits="userSpaceOnUse"><stop offset="0" stop-color="#4a017d"/><stop offset="1" stop-color="#f4136b"/></linearGradient><linearGradient id="linear-gradient-2" x1="73.66" y1="69.95" x2="95.66" y2="69.95" xlink:href="#linear-gradient"/><linearGradient id="linear-gradient-3" x1="96.35" y1="56.34" x2="100.35" y2="56.34" xlink:href="#linear-gradient"/><linearGradient id="linear-gradient-4" x1="58.29" y1="121.03" x2="111.27" y2="121.03" xlink:href="#linear-gradient"/></defs><title>인스타그램</title><g id="Layer_2" data-name="Layer 2"><g id="Layer_1-2" data-name="Layer 1"><path class="cls-1" d="M99.66,46a9,9,0,0,1,9,9V85a9,9,0,0,1-9,9h-30a9,9,0,0,1-9-9V55a9,9,0,0,1,9-9h30m0-1h-30a10,10,0,0,0-10,10V85a10,10,0,0,0,10,10h30a10,10,0,0,0,10-10V55a10,10,0,0,0-10-10Z"/><path class="cls-2" d="M84.66,60a10,10,0,1,1-10,10,10,10,0,0,1,10-10m0-1a11,11,0,1,0,11,11,11,11,0,0,0-11-11Z"/><path class="cls-3" d="M98.35,55.34a1,1,0,1,1-1,1,1,1,0,0,1,1-1m0-1a2,2,0,1,0,2,2,2,2,0,0,0-2-2Z"/><rect class="cls-4" width="170" height="170"/><path class="cls-5" d="M111.27,115.65h-.94v2.74h-1.44v-2.53H108v6.08h.94v-2.75h1.44v2.89h.94v-6.43Zm-22.88,0h-1V126.4h1v-5.6h1.78V120H88.39v-4.32Zm-21.53,0h-1v7.85h1v-7.85Zm39.85.69h-4v.79h3.1v1.39h-3.07v3.06h.7a20.94,20.94,0,0,0,4-.31l-.1-.79a17.75,17.75,0,0,1-3.71.31v-1.52h3.08v-2.93Zm-32.29,0h-1v.83c0,1.83-2,3.45-3.91,3.82l.45.82a5.89,5.89,0,0,0,4-3.11,5.81,5.81,0,0,0,4,3.11l.45-.82c-1.89-.36-3.93-2-3.93-3.82v-.83Zm-13.34,0a2.66,2.66,0,1,0,2.82,2.64,2.63,2.63,0,0,0-2.82-2.64Zm0,4.45a1.8,1.8,0,1,1,1.86-1.81,1.76,1.76,0,0,1-1.86,1.81Zm24.52-4.23h-5v7.19h.84a27.4,27.4,0,0,0,5.08-.36l-.1-.79a27.67,27.67,0,0,1-4.83.35v-2.58h3.79v-.79H81.57v-2.22h4v-.8Zm14,.16H92.21v.81h6.41v.27a24,24,0,0,1-.44,5.14l1,.1a26.42,26.42,0,0,0,.42-5.24v-1.08Zm11.68,5.81h-7.06v3.67h7.06V122.6Zm-6.1,2.88v-2.1h5.14v2.1Zm-44.24-2.76h-1v3.45h7.25v-.8H60.93v-2.65Zm40,1.31H91.17v.81h9.72V124Zm-22.06.13H69.08V125h9.75v-.81Z"/></g></g></svg>