<?xml version="1.0" encoding="utf-8"?>
<!-- Generator: Adobe Illustrator 24.0.0, SVG Export Plug-In . SVG Version: 6.00 Build 0)  -->
<svg version="1.1" id="Layer_1" xmlns="http://www.w3.org/2000/svg" xmlns:xlink="http://www.w3.org/1999/xlink" x="0px" y="0px"
	 viewBox="0 0 170 110" style="enable-background:new 0 0 170 110;" xml:space="preserve">
<style type="text/css">
	.st0{fill:url(#SVGID_1_);}
	.st1{fill:url(#SVGID_2_);}
	.st2{fill:url(#SVGID_3_);}
	.st3{fill:none;}
	.st4{fill:url(#SVGID_4_);}
</style>
<title>인스타그램</title>
<g id="Layer_1-2">
	
		<linearGradient id="SVGID_1_" gradientUnits="userSpaceOnUse" x1="59.66" y1="72" x2="109.66" y2="72" gradientTransform="matrix(1 0 0 -1 0 112)">
		<stop  offset="0" style="stop-color:#4A017D"/>
		<stop  offset="1" style="stop-color:#F4136B"/>
	</linearGradient>
	<path class="st0" d="M99.7,16c5,0,9,4,9,9l0,0v30c0,5-4,9-9,9h-30c-5,0-9-4-9-9V25c0-5,4-9,9-9l0,0H99.7 M99.7,15h-30
		c-5.5,0-10,4.5-10,10v30c0,5.5,4.5,10,10,10h30c5.5,0,10-4.5,10-10V25C109.7,19.5,105.2,15,99.7,15z"/>
	
		<linearGradient id="SVGID_2_" gradientUnits="userSpaceOnUse" x1="73.66" y1="72" x2="95.66" y2="72" gradientTransform="matrix(1 0 0 -1 0 112)">
		<stop  offset="0" style="stop-color:#4A017D"/>
		<stop  offset="1" style="stop-color:#F4136B"/>
	</linearGradient>
	<path class="st1" d="M84.7,30c5.5,0,10,4.5,10,10s-4.5,10-10,10s-10-4.5-10-10S79.1,30,84.7,30 M84.7,29c-6.1,0-11,4.9-11,11
		s4.9,11,11,11s11-4.9,11-11S90.7,29,84.7,29z"/>
	
		<linearGradient id="SVGID_3_" gradientUnits="userSpaceOnUse" x1="96.35" y1="85.66" x2="100.35" y2="85.66" gradientTransform="matrix(1 0 0 -1 0 112)">
		<stop  offset="0" style="stop-color:#4A017D"/>
		<stop  offset="1" style="stop-color:#F4136B"/>
	</linearGradient>
	<path class="st2" d="M98.3,25.3c0.6,0,1,0.4,1,1s-0.4,1-1,1s-1-0.4-1-1S97.8,25.3,98.3,25.3 M98.3,24.3c-1.1,0-2,0.9-2,2s0.9,2,2,2
		s2-0.9,2-2S99.5,24.3,98.3,24.3z"/>
	<rect y="-30" class="st3" width="170" height="170"/>
	
		<linearGradient id="SVGID_4_" gradientUnits="userSpaceOnUse" x1="58.29" y1="20.975" x2="111.27" y2="20.975" gradientTransform="matrix(1 0 0 -1 0 112)">
		<stop  offset="0" style="stop-color:#4A017D"/>
		<stop  offset="1" style="stop-color:#F4136B"/>
	</linearGradient>
	<path class="st4" d="M111.3,85.7h-0.9v2.7h-1.4v-2.5H108v6.1h0.9v-2.8h1.4v2.9h0.9L111.3,85.7L111.3,85.7z M88.4,85.7h-1v10.8h1
		v-5.6h1.8V90h-1.8V85.7L88.4,85.7z M66.9,85.7h-1v7.8h1V85.7z M106.7,86.3h-4v0.8h3.1v1.4h-3.1v3.1h0.7c1.3,0,2.7-0.1,4-0.3
		l-0.1-0.8c-1.2,0.2-2.5,0.3-3.7,0.3v-1.5h3.1V86.3z M74.4,86.3h-1v0.8c0,1.8-2,3.4-3.9,3.8l0.4,0.8c1.7-0.4,3.2-1.5,4-3.1
		c0.8,1.6,2.3,2.7,4,3.1l0.4-0.8c-1.9-0.4-3.9-2-3.9-3.8L74.4,86.3L74.4,86.3z M61.1,86.3c-1.5,0.1-2.6,1.3-2.5,2.8
		c0.1,1.5,1.3,2.6,2.8,2.5c1.4-0.1,2.5-1.3,2.5-2.7c0-1.5-1.2-2.6-2.6-2.6C61.2,86.3,61.1,86.3,61.1,86.3z M61.1,90.8
		c-1,0-1.8-0.9-1.7-1.9s0.9-1.8,1.9-1.7c1,0,1.7,0.8,1.7,1.8c0,1-0.7,1.8-1.7,1.8C61.2,90.8,61.1,90.8,61.1,90.8z M85.6,86.6h-5v7.2
		h0.8c1.7,0,3.4-0.1,5.1-0.4l-0.1-0.8c-1.6,0.3-3.2,0.4-4.8,0.3v-2.6h3.8v-0.8h-3.8v-2.2h4L85.6,86.6L85.6,86.6z M99.6,86.7h-7.4
		v0.8h6.4v0.3c0,1.7-0.1,3.4-0.4,5.1l1,0.1c0.3-1.7,0.5-3.5,0.4-5.2C99.6,87.8,99.6,86.7,99.6,86.7z M111.3,92.5h-7.1v3.7h7.1V92.5
		L111.3,92.5z M105.2,95.4v-2.1h5.1v2.1H105.2z M60.9,92.6h-1v3.4h7.3v-0.8h-6.3L60.9,92.6L60.9,92.6z M100.9,94h-9.8v0.8h9.7
		L100.9,94L100.9,94z M78.9,94.1h-9.8V95h9.8v-0.8L78.9,94.1z"/>
</g>
</svg>
