<svg xmlns="http://www.w3.org/2000/svg" viewBox="0 0 120 120.5"><defs><style>.cls-1{fill:#626467;}.cls-2{fill:none;}</style></defs><title>Asset 36</title><g id="Layer_2" data-name="Layer 2"><g id="Layer_1-2" data-name="Layer 1"><path class="cls-1" d="M7.89,110.05a1.7,1.7,0,0,1,1.7,1.7v5a1.7,1.7,0,0,1-1.7,1.7h-5a1.7,1.7,0,0,1-1.7-1.7v-5a1.7,1.7,0,0,1,1.7-1.7h5m0-.8h-5a2.5,2.5,0,0,0-2.5,2.5v5a2.5,2.5,0,0,0,2.5,2.5h5a2.5,2.5,0,0,0,2.5-2.5v-5a2.5,2.5,0,0,0-2.5-2.5Z"/><path class="cls-1" d="M5.39,112.5a1.75,1.75,0,1,1-1.75,1.75,1.76,1.76,0,0,1,1.75-1.75m0-.8a2.55,2.55,0,1,0,2.55,2.55,2.55,2.55,0,0,0-2.55-2.55Z"/><path class="cls-1" d="M8.13,111.13a.4.4,0,1,0,.4.4.4.4,0,0,0-.4-.4Z"/><rect class="cls-2" width="120" height="120"/><path class="cls-1" d="M16.39,110.67h.93V118h-.93Z"/><path class="cls-1" d="M19.24,112.58H20l.08.78h0a2.6,2.6,0,0,1,1.82-.92c1.13,0,1.65.74,1.65,2.13V118h-.9v-3.31c0-1-.31-1.45-1-1.45a2.07,2.07,0,0,0-1.49.83V118h-.91Z"/><path class="cls-1" d="M24.74,117.38l.45-.6a2.46,2.46,0,0,0,1.61.64c.72,0,1.07-.38,1.07-.85s-.64-.79-1.24-1c-.76-.27-1.59-.64-1.59-1.56s.7-1.54,1.88-1.54a2.76,2.76,0,0,1,1.68.61l-.44.59a2,2,0,0,0-1.23-.48c-.69,0-1,.36-1,.78s.56.71,1.17.94c.79.3,1.66.62,1.66,1.64s-.7,1.61-2,1.61A3.28,3.28,0,0,1,24.74,117.38Z"/><path class="cls-1" d="M30,116.33v-3h-.81v-.69l.85,0,.11-1.53h.76v1.53h1.47v.74H30.88v3c0,.67.21,1,.84,1a1.92,1.92,0,0,0,.62-.14l.18.68a3.42,3.42,0,0,1-1,.2C30.36,118.13,30,117.4,30,116.33Z"/><path class="cls-1" d="M33,116.59c0-1.17,1-1.76,3.34-2,0-.7-.23-1.37-1.12-1.37a3,3,0,0,0-1.63.58l-.36-.63a4.08,4.08,0,0,1,2.14-.71c1.32,0,1.88.89,1.88,2.23V118H36.5l-.08-.65h0a2.91,2.91,0,0,1-1.8.78A1.47,1.47,0,0,1,33,116.59Zm3.34.09v-1.51c-1.83.22-2.45.66-2.45,1.37s.42.86,1,.86A2.22,2.22,0,0,0,36.34,116.68Z"/><path class="cls-1" d="M38.57,119a1.52,1.52,0,0,1,.8-1.23v0a1,1,0,0,1-.5-.89,1.31,1.31,0,0,1,.61-1v0a1.88,1.88,0,0,1-.71-1.45,1.93,1.93,0,0,1,2-1.94,2.24,2.24,0,0,1,.76.14h1.89v.7H42.35a1.55,1.55,0,0,1,.44,1.12,1.86,1.86,0,0,1-2,1.89,1.9,1.9,0,0,1-.81-.2.81.81,0,0,0-.35.65c0,.35.22.59,1,.59h1.06c1.26,0,1.89.4,1.89,1.29s-1.06,1.88-2.74,1.88C39.48,120.5,38.57,120,38.57,119Zm4.1-.28c0-.5-.39-.67-1.11-.67h-.94a3.05,3.05,0,0,1-.7-.09,1.13,1.13,0,0,0-.55.92c0,.58.59,1,1.57,1S42.67,119.33,42.67,118.76Zm-.7-4.38a1.16,1.16,0,1,0-2.32,0,1.17,1.17,0,1,0,2.32,0Z"/><path class="cls-1" d="M44.61,112.58h.75l.08,1h0A1.87,1.87,0,0,1,47,112.44a1.1,1.1,0,0,1,.57.12l-.16.8a1.28,1.28,0,0,0-.53-.09c-.45,0-1,.32-1.37,1.25V118h-.91Z"/><path class="cls-1" d="M47.88,116.59c0-1.17,1-1.76,3.34-2,0-.7-.23-1.37-1.12-1.37a3,3,0,0,0-1.63.58l-.36-.63a4.08,4.08,0,0,1,2.14-.71c1.32,0,1.88.89,1.88,2.23V118h-.75l-.08-.65h0a2.91,2.91,0,0,1-1.8.78A1.47,1.47,0,0,1,47.88,116.59Zm3.34.09v-1.51c-1.83.22-2.45.66-2.45,1.37s.42.86,1,.86A2.22,2.22,0,0,0,51.22,116.68Z"/><path class="cls-1" d="M53.86,112.58h.75l.08.79h0a2.39,2.39,0,0,1,1.69-.93,1.42,1.42,0,0,1,1.49,1,2.57,2.57,0,0,1,1.79-1c1.12,0,1.65.74,1.65,2.13V118h-.91v-3.31c0-1-.32-1.45-1-1.45a2,2,0,0,0-1.37.83V118h-.9v-3.31c0-1-.32-1.45-1-1.45a2,2,0,0,0-1.37.83V118h-.91Z"/><path class="cls-1" d="M65,115.74a4.7,4.7,0,0,1,4.65-4.95,3.47,3.47,0,0,1,3.67,3.7c0,1.94-1.22,3-2.23,3a1,1,0,0,1-1.15-.85h0a1.94,1.94,0,0,1-1.35.77c-.76,0-1.34-.57-1.34-1.58,0-1.18.84-2.59,2.15-2.59a1,1,0,0,1,.88.55h0l.13-.46H71l-.44,2.23c-.21.9,0,1.3.61,1.3s1.51-.85,1.51-2.29a2.89,2.89,0,0,0-3.1-3.13,4.09,4.09,0,0,0-3.9,4.31A3.16,3.16,0,0,0,69,119.12a3.68,3.68,0,0,0,1.81-.5l.24.54a4,4,0,0,1-2.12.57A3.73,3.73,0,0,1,65,115.74Zm4.77.34.31-1.77a.76.76,0,0,0-.71-.47c-.88,0-1.42,1.06-1.42,1.9s.34,1,.79,1A1.48,1.48,0,0,0,69.77,116.08Z"/><path class="cls-1" d="M75,116.33v-3h-.81v-.69l.85,0,.11-1.53h.76v1.53h1.47v.74H75.89v3c0,.67.21,1,.84,1a1.92,1.92,0,0,0,.62-.14l.18.68a3.42,3.42,0,0,1-1,.2C75.37,118.13,75,117.4,75,116.33Z"/><path class="cls-1" d="M78.44,110.85a.61.61,0,1,1,.61.61A.57.57,0,0,1,78.44,110.85Zm.15,1.73h.91V118h-.91Z"/><path class="cls-1" d="M81.34,116.92v-6.87h.91V117c0,.28.12.39.26.39l.19,0,.13.7a1.4,1.4,0,0,1-.53.08C81.62,118.13,81.34,117.69,81.34,116.92Z"/><path class="cls-1" d="M84,110.85a.61.61,0,1,1,.61.61A.57.57,0,0,1,84,110.85Zm.15,1.73h.91V118h-.91Z"/><path class="cls-1" d="M86.6,116.59c0-1.17,1-1.76,3.34-2,0-.7-.23-1.37-1.12-1.37a3,3,0,0,0-1.63.58l-.36-.63a4.08,4.08,0,0,1,2.14-.71c1.32,0,1.87.89,1.87,2.23V118H90.1l-.08-.65h0a2.91,2.91,0,0,1-1.8.78A1.47,1.47,0,0,1,86.6,116.59Zm3.34.09v-1.51c-1.83.22-2.45.66-2.45,1.37s.42.86,1,.86A2.22,2.22,0,0,0,89.94,116.68Z"/><path class="cls-1" d="M91.79,118.79H97.1v.61H91.79Z"/><path class="cls-1" d="M98.17,110.05h.9v5.4h0l2.3-2.87h1l-1.8,2.19,2,3.23h-1l-1.58-2.61-1,1.18V118h-.9Z"/><path class="cls-1" d="M103.69,112.58h.75l.08,1h0a1.87,1.87,0,0,1,1.53-1.13,1.16,1.16,0,0,1,.58.12l-.17.8a1.28,1.28,0,0,0-.53-.09c-.45,0-1,.32-1.36,1.25V118h-.91Z"/></g></g></svg>