<?xml version="1.0" encoding="utf-8"?>
<!-- Generator: Adobe Illustrator 24.0.0, SVG Export Plug-In . SVG Version: 6.00 Build 0)  -->
<svg version="1.1" id="Layer_1" xmlns="http://www.w3.org/2000/svg" xmlns:xlink="http://www.w3.org/1999/xlink" x="0px" y="0px"
	 viewBox="0 0 170 110" style="enable-background:new 0 0 170 110;" xml:space="preserve">
<style type="text/css">
	.st0{fill:none;}
	.st1{fill:none;stroke:url(#SVGID_1_);stroke-miterlimit:10;}
	.st2{fill:none;stroke:url(#SVGID_2_);stroke-miterlimit:10;}
	.st3{fill:url(#SVGID_3_);}
</style>
<title>인테리어맵</title>
<g id="Layer_2_1_">
	<g id="Layer_1-2">
		<rect y="-30" class="st0" width="170" height="170"/>
		
			<linearGradient id="SVGID_1_" gradientUnits="userSpaceOnUse" x1="66.83" y1="71.9839" x2="102.83" y2="71.9839" gradientTransform="matrix(1 0 0 -1 0 112)">
			<stop  offset="0" style="stop-color:#4A017D"/>
			<stop  offset="1" style="stop-color:#F4136B"/>
		</linearGradient>
		<path class="st1" d="M102.3,34.6c0,9.9-17.5,28.1-17.5,28.1S67.3,44.5,67.3,34.6c0-9.7,7.8-17.5,17.5-17.5S102.3,24.9,102.3,34.6
			L102.3,34.6z"/>
		
			<linearGradient id="SVGID_2_" gradientUnits="userSpaceOnUse" x1="76.83" y1="77.85" x2="92.83" y2="77.85" gradientTransform="matrix(1 0 0 -1 0 112)">
			<stop  offset="0" style="stop-color:#4A017D"/>
			<stop  offset="1" style="stop-color:#F4136B"/>
		</linearGradient>
		<circle class="st2" cx="84.8" cy="34.2" r="7.5"/>
		
			<linearGradient id="SVGID_3_" gradientUnits="userSpaceOnUse" x1="58.34" y1="21.525" x2="111.33" y2="21.525" gradientTransform="matrix(1 0 0 -1 0 112)">
			<stop  offset="0" style="stop-color:#4A017D"/>
			<stop  offset="1" style="stop-color:#F4136B"/>
		</linearGradient>
		<path class="st3" d="M61.1,91.1c-1.5-0.1-2.6-1.4-2.4-2.9c0.1-1.5,1.4-2.6,2.9-2.4c1.4,0.1,2.4,1.3,2.4,2.6c0,1.5-1.2,2.7-2.6,2.7
			C61.3,91.1,61.2,91.1,61.1,91.1z M61.1,90.3c1,0,1.8-0.8,1.8-1.8c0-1-0.8-1.8-1.8-1.8c0,0,0,0,0,0c-1,0-1.8,0.8-1.8,1.8
			C59.3,89.5,60.1,90.3,61.1,90.3C61.1,90.3,61.1,90.3,61.1,90.3z M67.2,94.8v0.8H60v-3.5h1v2.7H67.2z M66.9,93h-1v-7.9h1V93z
			 M70.5,92.5c1.2,0,2.4-0.1,3.6-0.3l0.1,0.8c-1.3,0.2-2.6,0.3-3.9,0.3h-0.7v-6.9h4v0.8h-3.1v2.1H73v0.8h-2.5V92.5z M75.2,85.4h0.9
			v10h-0.9V90h-1.6v-0.8h1.6V85.4z M78.3,85.1v10.8h-0.9V85.1L78.3,85.1z M81.8,92.5c1.8,0,3.5-0.1,5.2-0.4l0.1,0.8
			c-1.8,0.3-3.6,0.4-5.4,0.4h-0.9v-4.1h4v-2.2h-4v-0.8h5V90h-4L81.8,92.5z M89,85.1v10.8h-1V85.1H89z M100.1,85.1v10.8h-1V90h-2.3
			c-0.1,2.1-1.2,3.4-2.7,3.4s-2.7-1.4-2.7-3.8s1.1-3.8,2.7-3.8s2.5,1.3,2.7,3.3h2.3v-4.1L100.1,85.1z M95.8,89.7
			c0-1.7-0.7-2.9-1.7-2.9s-1.8,1.1-1.8,2.9s0.7,2.9,1.8,2.9S95.8,91.4,95.8,89.7L95.8,89.7z M106.8,90.4h-4.2v-4.5h4.2V90.4z
			 M105.9,86.6h-2.3v3h2.4L105.9,86.6z M110.3,91.4h1v4.3h-7.1v-4.3h1v1.3h5.1L110.3,91.4z M110.3,93.5h-5.1v1.4h5.1V93.5z
			 M111.3,85.1v5.8h-1v-2.6H109v2.5h-0.9v-5.6h0.9v2.2h1.4v-2.5L111.3,85.1z"/>
	</g>
</g>
</svg>
