<svg xmlns="http://www.w3.org/2000/svg" viewBox="0 0 120 120"><defs><style>.cls-1,.cls-2{fill:none;}.cls-2{stroke:#d3c4c2;stroke-miterlimit:10;stroke-width:2px;}.cls-3{fill:#d3c4c2;}</style></defs><title>인테리어맵</title><g id="Layer_2" data-name="Layer 2"><g id="Layer_1-2" data-name="Layer 1"><rect class="cls-1" width="120" height="120"/><path class="cls-2" d="M77.33,39.6c0,9.87-17.51,28.11-17.51,28.11S42.33,49.47,42.33,39.6a17.5,17.5,0,1,1,35,0Z"/><circle class="cls-2" cx="59.83" cy="39.15" r="7.5"/><path class="cls-3" d="M36.13,96.14A2.66,2.66,0,1,1,39,93.47,2.65,2.65,0,0,1,36.13,96.14Zm0-.85a1.8,1.8,0,1,0,0-3.6,1.8,1.8,0,1,0,0,3.6Zm6.11,4.5v.81H35V97.14h1v2.65ZM41.92,98h-1V90.09h1Zm3.55-.51a16.76,16.76,0,0,0,3.59-.27l.08.8a18.78,18.78,0,0,1-3.92.28h-.7V91.36h4v.81H45.47v2.11H48v.78H45.47Zm4.69-7.1h.92v10h-.92V95H48.61v-.8h1.55Zm3.1-.27v10.76h-.94V90.07Zm3.52,7.36A31.67,31.67,0,0,0,62,97.05l.09.8a31.56,31.56,0,0,1-5.42.4h-.89V94.12h4V91.88h-4v-.8h5v3.83h-4ZM64,90.07v10.78H63V90.07Zm11.07,0v10.78h-1V95H71.75c-.1,2.11-1.16,3.43-2.66,3.43S66.4,97,66.4,94.66s1.12-3.75,2.69-3.75,2.5,1.26,2.66,3.27h2.34v-4.1Zm-4.24,4.58c0-1.74-.72-2.87-1.74-2.87s-1.75,1.13-1.75,2.87.72,2.88,1.75,2.88S70.83,96.41,70.83,94.66Zm11,.71H77.73V90.83h4.15ZM81,91.62H78.65v3H81Zm4.39,4.8h1v4.27H79.26V96.42h1v1.3h5.11Zm0,2.08H80.25v1.39h5.11Zm1-8.41v5.85h-1V93.37H84v2.5h-.93V90.3H84v2.25h1.37V90.09Z"/></g></g></svg>