<svg xmlns="http://www.w3.org/2000/svg" viewBox="0 0 170 170"><defs><style>.cls-1,.cls-2{fill:none;}.cls-2{stroke:#d3c4c2;stroke-miterlimit:10;stroke-width:2px;}.cls-3{fill:#d3c4c2;}</style></defs><title>인테리어맵</title><g id="Layer_2" data-name="Layer 2"><g id="Layer_1-2" data-name="Layer 1"><rect class="cls-1" width="170" height="170"/><path class="cls-2" d="M102.33,64.6c0,9.87-17.51,28.11-17.51,28.11S67.33,74.47,67.33,64.6a17.5,17.5,0,1,1,35,0Z"/><circle class="cls-2" cx="84.83" cy="64.15" r="7.5"/><path class="cls-3" d="M61.13,121.14A2.66,2.66,0,1,1,64,118.47,2.65,2.65,0,0,1,61.13,121.14Zm0-.85a1.8,1.8,0,1,0,0-3.6,1.8,1.8,0,1,0,0,3.6Zm6.11,4.5v.81H60v-3.46h1v2.65ZM66.92,123h-1v-7.86h1Zm3.55-.51a16.76,16.76,0,0,0,3.59-.27l.08.8a18.78,18.78,0,0,1-3.92.28h-.7v-6.89h4v.81H70.47v2.11H73v.78H70.47Zm4.69-7.1h.92v10h-.92V120H73.61v-.8h1.55Zm3.1-.27v10.76h-.94V115.07Zm3.52,7.36a31.67,31.67,0,0,0,5.23-.38l.09.8a31.56,31.56,0,0,1-5.42.4h-.89v-4.13h4v-2.24h-4v-.8h5v3.83h-4ZM89,115.07v10.78H88V115.07Zm11.07,0v10.78h-1V120H96.75c-.1,2.11-1.16,3.43-2.66,3.43S91.4,122,91.4,119.66s1.12-3.75,2.69-3.75,2.5,1.26,2.66,3.27h2.34v-4.1Zm-4.24,4.58c0-1.74-.72-2.87-1.74-2.87s-1.75,1.13-1.75,2.87.72,2.88,1.75,2.88S95.83,121.41,95.83,119.66Zm11,.71h-4.15v-4.54h4.15Zm-.91-3.75h-2.32v3H106Zm4.39,4.8h1v4.27h-7.07v-4.27h1v1.3h5.11Zm0,2.08h-5.11v1.39h5.11Zm1-8.41v5.85h-1v-2.57H109v2.5h-.93V115.3H109v2.25h1.37v-2.46Z"/></g></g></svg>