<svg xmlns="http://www.w3.org/2000/svg" xmlns:xlink="http://www.w3.org/1999/xlink" viewBox="0 0 170 170"><defs><style>.cls-1,.cls-2{fill:none;}.cls-2{stroke-miterlimit:10;stroke:url(#linear-gradient);}.cls-3{fill:url(#linear-gradient-2);}</style><linearGradient id="linear-gradient" x1="61.52" y1="70.65" x2="108.52" y2="70.65" gradientUnits="userSpaceOnUse"><stop offset="0" stop-color="#4a017d"/><stop offset="1" stop-color="#f4136b"/></linearGradient><linearGradient id="linear-gradient-2" x1="62.19" y1="120.44" x2="105.23" y2="120.44" xlink:href="#linear-gradient"/></defs><title>자재창고</title><g id="Layer_2" data-name="Layer 2"><g id="Layer_1-2" data-name="Layer 1"><rect class="cls-1" width="170" height="170"/><polygon class="cls-2" points="85.07 47.75 62.02 69.75 62.02 93.75 77.57 93.75 77.57 78.75 92.57 78.75 92.57 93.75 108.02 93.75 108.02 69.75 85.07 47.75"/><path class="cls-3" d="M66,118.38a5.17,5.17,0,0,0,2.78,4.35l-.56.79a5.8,5.8,0,0,1-2.7-3.3,6.12,6.12,0,0,1-2.75,3.57l-.58-.78A5.62,5.62,0,0,0,65,118.38V117H62.57v-.82h5.81V117H66Zm6.42,1.88H70.65v5.59h-1V115.1h1v4.33h1.77ZM76.59,118a4.83,4.83,0,0,0,2.31,4.49l-.58.76a4.78,4.78,0,0,1-2.18-2.9,5,5,0,0,1-2.23,3.27l-.6-.74c1.53-.87,2.34-2.7,2.34-4.88v-.84H73.56v-.81h5v.81h-2Zm6-2.93v10.77h-1v-5.6H80.23v5.07H79.3v-10h.93v4.1h1.41v-4.35Zm7.71,6.06A4.24,4.24,0,0,1,87.65,119,4.36,4.36,0,0,1,85,121.41l-.49-.78a3.52,3.52,0,0,0,2.67-3.22v-.22H84.75v-.79h2.39V115h1v1.37H90.5v.79H88.12v.22a3.33,3.33,0,0,0,2.63,3Zm2.62,2.75c0,1.24-1.34,1.94-3.54,1.94s-3.55-.7-3.55-1.94S87.16,122,89.38,122,92.92,122.65,92.92,123.89Zm-1,0c0-.74-1-1.17-2.56-1.17s-2.56.43-2.56,1.17,1,1.18,2.56,1.18S91.94,124.64,91.94,123.89Zm2.46-6v.82H92.8v3h-1v-6.6h1v2.78Zm10.83,5.67v.8H95.51v-.8h3.77v-3.86h1v3.86ZM103.09,117H96.53v-.8h7.54v1.07a24.2,24.2,0,0,1-.41,5l-1-.11a22.91,22.91,0,0,0,.41-4.87Z"/></g></g></svg>