<svg xmlns="http://www.w3.org/2000/svg" viewBox="0 0 120 120"><defs><style>.cls-1,.cls-2{fill:none;}.cls-2{stroke:#d3c4c2;stroke-miterlimit:10;stroke-width:2px;}.cls-3{fill:#d3c4c2;}</style></defs><title>자재창고</title><g id="Layer_2" data-name="Layer 2"><g id="Layer_1-2" data-name="Layer 1"><rect class="cls-1" width="120" height="120"/><polygon class="cls-2" points="60.07 22.75 37.02 44.75 37.02 68.75 52.57 68.75 52.57 53.75 67.57 53.75 67.57 68.75 83.02 68.75 83.02 44.75 60.07 22.75"/><path class="cls-3" d="M41,93.38a5.17,5.17,0,0,0,2.78,4.35l-.56.79a5.8,5.8,0,0,1-2.7-3.3,6.12,6.12,0,0,1-2.75,3.57L37.19,98A5.62,5.62,0,0,0,40,93.38V92H37.57v-.82h5.81V92H41Zm6.42,1.88H45.65v5.59h-1V90.1h1v4.33h1.77ZM51.59,93A4.83,4.83,0,0,0,53.9,97.5l-.58.76a4.78,4.78,0,0,1-2.18-2.9,5,5,0,0,1-2.23,3.27l-.6-.74c1.53-.87,2.34-2.7,2.34-4.88v-.84H48.56v-.81h5v.81h-2Zm6-2.93v10.77h-1v-5.6H55.23v5.07H54.3v-10h.93v4.1h1.41V90.08Zm7.71,6.06A4.24,4.24,0,0,1,62.65,94,4.36,4.36,0,0,1,60,96.41l-.49-.78a3.52,3.52,0,0,0,2.67-3.22v-.22H59.75V91.4h2.39V90h1V91.4H65.5v.79H63.12v.22a3.33,3.33,0,0,0,2.63,3Zm2.62,2.75c0,1.24-1.34,1.94-3.54,1.94s-3.55-.7-3.55-1.94S62.16,97,64.38,97,67.92,97.65,67.92,98.89Zm-1,0c0-.74-1-1.17-2.56-1.17s-2.56.43-2.56,1.17,1,1.18,2.56,1.18S66.94,99.64,66.94,98.89Zm2.46-6v.82H67.8v3h-1v-6.6h1v2.78Zm10.83,5.67v.8H70.51v-.8h3.77V94.68h1v3.86ZM78.09,92H71.53v-.8h7.54v1.07a24.2,24.2,0,0,1-.41,5l-1-.11a22.91,22.91,0,0,0,.41-4.87Z"/></g></g></svg>