<?xml version="1.0" encoding="utf-8"?>
<!-- Generator: Adobe Illustrator 24.0.0, SVG Export Plug-In . SVG Version: 6.00 Build 0)  -->
<svg version="1.1" id="Layer_1" xmlns="http://www.w3.org/2000/svg" xmlns:xlink="http://www.w3.org/1999/xlink" x="0px" y="0px"
	 viewBox="0 0 170 110" style="enable-background:new 0 0 170 110;" xml:space="preserve">
<style type="text/css">
	.st0{fill:none;}
	.st1{fill:none;stroke:url(#SVGID_1_);stroke-miterlimit:10;}
	.st2{fill:url(#SVGID_2_);}
</style>
<title>자재창고</title>
<g id="Layer_2_1_">
	<g id="Layer_1-2">
		<rect y="-30" class="st0" width="170" height="170"/>
		
			<linearGradient id="SVGID_1_" gradientUnits="userSpaceOnUse" x1="61.52" y1="71.346" x2="108.52" y2="71.346" gradientTransform="matrix(1 0 0 -1 0 112)">
			<stop  offset="0" style="stop-color:#4A017D"/>
			<stop  offset="1" style="stop-color:#F4136B"/>
		</linearGradient>
		<polygon class="st1" points="85.1,17.8 62,39.8 62,63.8 77.6,63.8 77.6,48.8 92.6,48.8 92.6,63.8 108,63.8 108,39.8 		"/>
		
			<linearGradient id="SVGID_2_" gradientUnits="userSpaceOnUse" x1="62.19" y1="21.575" x2="105.21" y2="21.575" gradientTransform="matrix(1 0 0 -1 0 112)">
			<stop  offset="0" style="stop-color:#4A017D"/>
			<stop  offset="1" style="stop-color:#F4136B"/>
		</linearGradient>
		<path class="st2" d="M66,88.4c0.1,1.8,1.1,3.5,2.8,4.3l-0.6,0.8c-1.3-0.7-2.3-1.9-2.7-3.3c-0.4,1.5-1.4,2.8-2.8,3.6L62.2,93
			c1.7-1,2.7-2.7,2.8-4.6V87h-2.4v-0.8h5.8V87H66V88.4z M72.4,90.3h-1.8v5.6h-1V85.1h1v4.3h1.8V90.3z M76.6,88
			c-0.1,1.8,0.8,3.5,2.3,4.5l-0.6,0.8c-1.1-0.6-1.9-1.7-2.2-2.9c-0.3,1.4-1.1,2.5-2.2,3.3l-0.6-0.7c1.5-0.9,2.3-2.7,2.3-4.9v-0.8
			h-2.1v-0.8h5v0.8h-2L76.6,88z M82.6,85.1v10.8h-1v-5.6h-1.4v5.1h-0.9v-10h0.9v4.1h1.4v-4.3L82.6,85.1z M90.3,91.1
			c-1.1-0.3-2.1-1.1-2.6-2.1c-0.5,1.1-1.5,2-2.7,2.4l-0.5-0.8c1.5-0.4,2.6-1.7,2.7-3.2v-0.2h-2.4v-0.8h2.4V85h1v1.4h2.4v0.8h-2.4
			v0.2c0.1,1.5,1.2,2.7,2.6,3L90.3,91.1z M92.9,93.9c0,1.2-1.3,1.9-3.5,1.9s-3.6-0.7-3.6-1.9s1.3-1.9,3.6-1.9S92.9,92.7,92.9,93.9
			L92.9,93.9z M91.9,93.9c0-0.7-1-1.2-2.6-1.2s-2.6,0.4-2.6,1.2s1,1.2,2.6,1.2S91.9,94.6,91.9,93.9L91.9,93.9z M94.4,87.9v0.8h-1.6
			v3h-1v-6.6h1v2.8H94.4z M105.2,93.5v0.8h-9.7v-0.8h3.8v-3.9h1v3.9H105.2z M103.1,87h-6.6v-0.8h7.5v1.1c0,1.7-0.1,3.4-0.4,5l-1-0.1
			c0.3-1.6,0.4-3.2,0.4-4.9L103.1,87z"/>
	</g>
</g>
</svg>
