<svg xmlns="http://www.w3.org/2000/svg" viewBox="0 0 120 120"><defs><style>.cls-1,.cls-2{fill:none;}.cls-1{stroke:#d3c4c2;stroke-miterlimit:10;stroke-width:2px;}.cls-3{fill:#d3c4c2;}</style></defs><title>전문가페이지</title><g id="Layer_2" data-name="Layer 2"><g id="Layer_1-2" data-name="Layer 1"><polyline class="cls-1" points="73.52 63.22 73.52 51.6 47.42 51.6 47.42 63.22"/><path class="cls-1" d="M40.57,46.61C41.43,59.42,50,69.48,60.49,69.48S79.55,59.42,80.41,46.61"/><path class="cls-1" d="M82.85,41.69C81.6,29.2,72.07,19.48,60.49,19.48S39.38,29.2,38.13,41.69c-1.69.68-2.64,1.44-2.64,2.24,0,2.76,11.19,5,25,5s25-2.24,25-5C85.49,43.13,84.53,42.37,82.85,41.69Z"/><rect class="cls-2" width="120" height="120"/><path class="cls-3" d="M33.84,96.32a4.44,4.44,0,0,1-2.59-2.43,4.58,4.58,0,0,1-2.71,2.67L28,95.79a3.9,3.9,0,0,0,2.71-3.52v-.54h-2.4v-.81h5.75v.81H31.72v.53a3.68,3.68,0,0,0,2.61,3.29Zm3.31,3.44v.81H30V97.25h1v2.51ZM35.85,93v-3h1v7.88h-1V93.83H33.7V93Zm12.93,2.53v.8H44.46v2.17h-1V96.35H39v-.8Zm-7.55,4.21h6.46v.81H40.25V97.5h1Zm6.28-5.43H40.27V90.55h7.24Zm-1-3h-5.3v2.2h5.3Zm9-.14a8.08,8.08,0,0,1-4.88,7.57L50.14,98c2.74-1.38,4.22-3.44,4.45-6h-4V91.2Zm4.51,4H58.34v5.58h-1V90.05h1v4.37h1.73Zm5.16,2,1.13-.12.06.72a32.61,32.61,0,0,1-5.33.36L61,97.34h1.09V92.21H61.2v-.79h4.92v.79h-.89ZM63,97.31l1.34,0V92.21H63Zm4.28-7h.92v9.93h-.92V95H65.8v-.86h1.47Zm3-.25v10.75h-.94V90.06ZM78,94.63c0,2.29-1.14,3.75-2.73,3.75s-2.74-1.46-2.74-3.75,1.14-3.75,2.74-3.75S78,92.34,78,94.63Zm-4.53,0c0,1.75.74,2.88,1.8,2.88s1.78-1.13,1.78-2.88-.74-2.87-1.78-2.87S73.48,92.89,73.48,94.63ZM81,90.05v10.78H80V90.05ZM87,93.34a5,5,0,0,0,2.88,4.35l-.55.79a5.67,5.67,0,0,1-2.82-3.29,6,6,0,0,1-2.77,3.55L83.19,98A5.51,5.51,0,0,0,86,93.34V92H83.55v-.82h6V92H87Zm5-3.28v10.75H91V90.06Z"/></g></g></svg>