<?xml version="1.0" encoding="utf-8"?>
<!-- Generator: Adobe Illustrator 24.0.0, SVG Export Plug-In . SVG Version: 6.00 Build 0)  -->
<svg version="1.1" id="Layer_1" xmlns="http://www.w3.org/2000/svg" xmlns:xlink="http://www.w3.org/1999/xlink" x="0px" y="0px"
	 viewBox="0 0 170 110" style="enable-background:new 0 0 170 110;" xml:space="preserve">
<style type="text/css">
	.st0{fill:none;stroke:url(#SVGID_1_);stroke-miterlimit:10;}
	.st1{fill:none;stroke:url(#SVGID_2_);stroke-miterlimit:10;}
	.st2{fill:none;stroke:url(#SVGID_3_);stroke-miterlimit:10;}
	.st3{fill:none;}
	.st4{fill:url(#SVGID_4_);}
</style>
<title>전문가페이지</title>
<g id="Layer_2_1_">
	<g id="Layer_1-2">
		
			<linearGradient id="SVGID_1_" gradientUnits="userSpaceOnUse" x1="71.93" y1="59.84" x2="99.02" y2="59.84" gradientTransform="matrix(1 0 0 -1 0 112)">
			<stop  offset="0" style="stop-color:#4A017D"/>
			<stop  offset="1" style="stop-color:#F4136B"/>
		</linearGradient>
		<path class="st0" d="M98.5,58.2V46.6H72.4v11.6"/>
		
			<linearGradient id="SVGID_2_" gradientUnits="userSpaceOnUse" x1="65.0711" y1="58.7217" x2="105.9089" y2="58.7217" gradientTransform="matrix(1 0 0 -1 0 112)">
			<stop  offset="0" style="stop-color:#4A017D"/>
			<stop  offset="1" style="stop-color:#F4136B"/>
		</linearGradient>
		<path class="st1" d="M65.6,41.6c0.9,12.8,9.4,22.9,19.9,22.9s19.1-10.1,19.9-22.9"/>
		
			<linearGradient id="SVGID_3_" gradientUnits="userSpaceOnUse" x1="59.99" y1="82.795" x2="110.99" y2="82.795" gradientTransform="matrix(1 0 0 -1 0 112)">
			<stop  offset="0" style="stop-color:#4A017D"/>
			<stop  offset="1" style="stop-color:#F4136B"/>
		</linearGradient>
		<path class="st2" d="M107.8,36.7c-1.2-12.5-10.8-22.2-22.4-22.2s-21.1,9.7-22.4,22.2c-1.7,0.7-2.6,1.4-2.6,2.2c0,2.8,11.2,5,25,5
			s25-2.2,25-5C110.5,38.1,109.5,37.4,107.8,36.7z"/>
		<rect y="-30" class="st3" width="170" height="170"/>
		
			<linearGradient id="SVGID_4_" gradientUnits="userSpaceOnUse" x1="53.02" y1="21.6" x2="116.95" y2="21.6" gradientTransform="matrix(1 0 0 -1 0 112)">
			<stop  offset="0" style="stop-color:#4A017D"/>
			<stop  offset="1" style="stop-color:#F4136B"/>
		</linearGradient>
		<path class="st4" d="M58.8,91.3c-1.2-0.4-2.1-1.3-2.6-2.4c-0.5,1.2-1.5,2.2-2.7,2.7L53,90.8c1.5-0.5,2.6-1.9,2.7-3.5v-0.5h-2.4
			v-0.8h5.8v0.8h-2.4v0.5c0.1,1.5,1.1,2.8,2.6,3.3L58.8,91.3z M62.2,94.8v0.8H55v-3.3h1v2.5H62.2z M60.8,88v-3h1v7.9h-1v-4.1h-2.1
			V88H60.8z M73.8,90.5v0.8h-4.3v2.2h-1v-2.2H64v-0.8H73.8z M66.2,94.7h6.5v0.8h-7.4v-3h1L66.2,94.7z M72.5,89.3h-7.2v-3.8h7.2V89.3
			z M71.5,86.3h-5.3v2.2h5.3V86.3z M80.5,86.2c0.1,3.3-1.9,6.3-4.9,7.6L75.1,93c2.7-1.4,4.2-3.4,4.4-6h-4v-0.8L80.5,86.2z M85,90.2
			h-1.7v5.6h-1V85.1h1v4.4h1.7L85,90.2z M90.2,92.2l1.1-0.1l0.1,0.7c-1.8,0.3-3.5,0.4-5.3,0.4l-0.1-0.8H87v-5.1h-0.8v-0.8h4.9v0.8
			h-0.9L90.2,92.2z M87.9,92.3h1.3v-5.1H88L87.9,92.3z M92.2,85.3h0.9v9.9h-0.9V90h-1.4v-0.9h1.5L92.2,85.3z M95.2,85v10.8h-0.9
			V85.1L95.2,85z M102.9,89.6c0,2.3-1.1,3.8-2.7,3.8s-2.7-1.5-2.7-3.8s1.1-3.8,2.7-3.8S103,87.3,102.9,89.6L102.9,89.6z M98.4,89.6
			c0,1.8,0.7,2.9,1.8,2.9s1.8-1.1,1.8-2.9s-0.7-2.9-1.8-2.9S98.5,87.9,98.4,89.6L98.4,89.6z M105.9,85v10.8h-1V85.1L105.9,85z
			 M111.9,88.3c0.1,1.9,1.2,3.6,2.9,4.3l-0.6,0.8c-1.3-0.7-2.4-1.9-2.8-3.3c-0.4,1.5-1.4,2.8-2.8,3.6l-0.6-0.8
			c1.7-0.9,2.8-2.7,2.8-4.6V87h-2.5v-0.8h6V87H112L111.9,88.3z M116.9,85v10.8h-1V85.1L116.9,85z"/>
	</g>
</g>
</svg>
