<svg xmlns="http://www.w3.org/2000/svg" viewBox="0 0 170 170"><defs><style>.cls-1,.cls-2{fill:none;}.cls-1{stroke:#d3c4c2;stroke-miterlimit:10;stroke-width:2px;}.cls-3{fill:#d3c4c2;}</style></defs><title>전문가페이지</title><g id="Layer_2" data-name="Layer 2"><g id="Layer_1-2" data-name="Layer 1"><polyline class="cls-1" points="98.52 88.22 98.52 76.6 72.42 76.6 72.42 88.22"/><path class="cls-1" d="M65.57,71.61C66.43,84.42,75,94.48,85.49,94.48s19.06-10.06,19.92-22.87"/><path class="cls-1" d="M107.85,66.69C106.6,54.2,97.07,44.48,85.49,44.48S64.38,54.2,63.13,66.69c-1.69.68-2.64,1.44-2.64,2.24,0,2.76,11.19,5,25,5s25-2.24,25-5C110.49,68.13,109.53,67.37,107.85,66.69Z"/><rect class="cls-2" width="170" height="170"/><path class="cls-3" d="M58.84,121.32a4.44,4.44,0,0,1-2.59-2.43,4.58,4.58,0,0,1-2.71,2.67l-.52-.77a3.9,3.9,0,0,0,2.71-3.52v-.54h-2.4v-.81h5.75v.81H56.72v.53a3.68,3.68,0,0,0,2.61,3.29Zm3.31,3.44v.81H55v-3.32h1v2.51ZM60.85,118v-3h1v7.88h-1v-4.11H58.7V118Zm12.93,2.53v.8H69.46v2.17h-1v-2.17H64v-.8Zm-7.55,4.21h6.46v.81H65.25V122.5h1Zm6.28-5.43H65.27v-3.78h7.24Zm-1-3h-5.3v2.2h5.3Zm9-.14a8.08,8.08,0,0,1-4.88,7.57l-.54-.77c2.74-1.38,4.22-3.44,4.45-6h-4v-.82Zm4.51,4H83.34v5.58h-1V115.05h1v4.37h1.73Zm5.16,2,1.13-.12.06.72a32.61,32.61,0,0,1-5.33.36l-.09-.82h1.09v-5.12H86.2v-.79h4.92v.79h-.89Zm-2.24.11,1.34,0v-5.05H88Zm4.28-7h.92v9.93h-.92V120H90.8v-.86h1.47Zm3-.25v10.75h-.94V115.06Zm7.72,4.57c0,2.29-1.14,3.75-2.73,3.75s-2.74-1.46-2.74-3.75,1.14-3.75,2.74-3.75S103,117.34,103,119.63Zm-4.53,0c0,1.75.74,2.88,1.8,2.88s1.78-1.13,1.78-2.88-.74-2.87-1.78-2.87S98.48,117.89,98.48,119.63Zm7.47-4.58v10.78h-1V115.05Zm6.07,3.29a5,5,0,0,0,2.88,4.35l-.55.79a5.67,5.67,0,0,1-2.82-3.29,6,6,0,0,1-2.77,3.55l-.57-.79a5.51,5.51,0,0,0,2.85-4.61V117h-2.49v-.82h6V117H112Zm5-3.28v10.75h-1V115.06Z"/></g></g></svg>