<?xml version="1.0" encoding="utf-8"?>
<!-- Generator: Adobe Illustrator 24.0.0, SVG Export Plug-In . SVG Version: 6.00 Build 0)  -->
<svg version="1.1" id="Layer_1" xmlns="http://www.w3.org/2000/svg" xmlns:xlink="http://www.w3.org/1999/xlink" x="0px" y="0px"
	 viewBox="0 0 120 120" style="enable-background:new 0 0 120 120;" xml:space="preserve">
<style type="text/css">
	.st0{fill:#999999;}
	.st1{font-family:'NotoSansKR-Light-KSCpc-EUC-H';}
	.st2{font-size:10px;}
</style>
<title>Asset 34</title>
<g>
	<g>
		<path class="st0" d="M-23.5-20.1c0.9,0.2,1.7,0.4,2.6,0.6c0,0,0,0,0,0C-21.8-19.6-22.7-19.8-23.5-20.1
			C-23.5-20.1-23.5-20.1-23.5-20.1L-23.5-20.1z"/>
	</g>
</g>
<g>
	<g>
		<path class="st0" d="M-0.4,12.4C-0.4,12.4-0.4,12.3-0.4,12.4C-0.5,12.3-0.5,12.4-0.4,12.4L-0.4,12.4z"/>
	</g>
</g>
<g>
	<g>
		<path class="st0" d="M69.6,31C69.1,42.8,61.1,52.9,50.7,58c-12,5.9-25.6,5.6-38.5,3.9c-0.5-0.1-0.6,0.8-0.1,0.8
			c13.6,2,28.7,2.1,40.9-5c9.7-5.6,16.9-15.3,17.4-26.8C70.4,30.4,69.6,30.4,69.6,31L69.6,31z"/>
	</g>
</g>
<g>
	<g>
		<path class="st0" d="M11.2,57.7c-2,1.6-4,3.1-6,4.7c-0.1,0.1-0.1,0.3,0,0.4c1.8,2.1,3.9,3.7,6.4,5c0.2,0.1,0.4,0,0.4-0.2
			c0.3-3.3,0.6-6.8,0.1-10.1c0-0.2-0.4-0.2-0.4,0.1c-0.1,3.4,0.1,6.7-0.2,10.1c0.1-0.1,0.3-0.2,0.4-0.2c-1-0.5-2-1.1-2.9-1.7
			c-0.5-0.4-2.8-1.9-2.9-2.7c-0.1-0.8,1.7-1.7,2.3-2.2c1.1-0.9,2.2-1.7,3.3-2.6C11.9,57.9,11.4,57.4,11.2,57.7L11.2,57.7z"/>
	</g>
</g>
<text transform="matrix(1 0 0 1 11.9532 22.1218)" class="st1 st2">클릭 시 웹페이지로 이동</text>
</svg>
