<?xml version="1.0" encoding="utf-8"?>
<!-- Generator: Adobe Illustrator 24.0.0, SVG Export Plug-In . SVG Version: 6.00 Build 0)  -->
<svg version="1.1" id="Layer_1" xmlns="http://www.w3.org/2000/svg" xmlns:xlink="http://www.w3.org/1999/xlink" x="0px" y="0px"
	 viewBox="0 0 120 120" style="enable-background:new 0 0 120 120;" xml:space="preserve">
<style type="text/css">
	.st0{fill:#666666;}
	.st1{fill:#999999;}
</style>
<title>Asset 34</title>
<g>
	<path class="st0" d="M61.5,5.7l0,0.3l-4.8,0l0-0.3l3.7,0c0.1-0.3,0.1-0.6,0.1-0.8l-3.3,0.1l0-0.3l3.3-0.1c0-0.2,0-0.4,0-0.5l0-0.1
		l-3.2,0l0-0.3l3.5,0l0,0.4c0,0.4,0,0.9-0.1,1.6L61.5,5.7z M57.6,8.5l3.5,0l0,0.3l-3.8,0l0-1.2l3.3,0l0-0.6l-3.3,0l0-0.3l3.6,0
		l0,1.1l-3.3,0L57.6,8.5z"/>
	<path class="st0" d="M65.5,6.2c-0.9,0.2-1.7,0.2-2.6,0.2l-0.4,0l0-1.5l2.1,0l0-0.9l-2.1,0l0-0.3l2.4,0l0,1.4l-2.1,0l0,0.9l0.1,0
		c0.9,0,1.6,0,2.6-0.2L65.5,6.2z M63,7.1l3.5,0l0,1.8l-0.3,0l0-1.5l-3.2,0L63,7.1z M66.6,3.5l0,3.2l-0.3,0l0-3.2L66.6,3.5z"/>
	<path class="st0" d="M70.9,5c0,1,0.8,1.9,1.5,2.3l-0.2,0.3c-0.6-0.3-1.2-1-1.4-1.8c-0.2,0.8-0.8,1.5-1.4,1.9l-0.2-0.3
		C69.8,7,70.5,6,70.5,5l0-1.1l0.3,0L70.9,5z M73.4,3.5l0,5.3l-0.3,0l0-5.3L73.4,3.5z"/>
	<path class="st0" d="M77.2,5.8c-0.5,0-0.9,0-1.3,0l0-0.3c0.8,0,2,0,2.9-0.2l0,0.2c-0.4,0.1-0.8,0.1-1.3,0.2l0,0.9l-0.3,0L77.2,5.8z
		 M76.2,4.4c0-0.5,0.5-0.8,1.2-0.8c0.7,0,1.2,0.3,1.2,0.8c0,0.5-0.5,0.8-1.2,0.8C76.7,5.2,76.2,4.9,76.2,4.4z M76.5,4.4
		c0,0.3,0.3,0.6,0.9,0.6s0.9-0.2,0.9-0.6c0-0.3-0.3-0.5-0.9-0.5S76.5,4.1,76.5,4.4z M80,7l0.3,0l0,1.7l-3.5,0l0-1.7l0.3,0l0,0.6
		l2.8,0L80,7z M80,7.8l-2.8,0l0,0.6l2.8,0L80,7.8z M79.1,6.1l0-2.6l0.3,0l0,3.2l-0.3,0l0-0.4l-1,0l0-0.2L79.1,6.1z M80.3,3.5l0,3.3
		l-0.3,0l0-3.3L80.3,3.5z"/>
	<path class="st0" d="M83.1,5c0,0.9,0.7,1.9,1.4,2.2l-0.2,0.2c-0.6-0.3-1.1-1-1.4-1.8c-0.2,0.8-0.8,1.5-1.4,1.9l-0.2-0.3
		C82.1,7,82.8,6,82.8,5l0-1.1l0.3,0L83.1,5z M86.4,6l-0.9,0l0,2.8l-0.3,0l0-5.3l0.3,0l0,2.2l0.9,0L86.4,6z"/>
	<path class="st0" d="M89.8,5.7c0,1.1-0.5,1.8-1.3,1.8c-0.8,0-1.3-0.7-1.3-1.8c0-1.1,0.5-1.8,1.3-1.8C89.3,3.9,89.8,4.6,89.8,5.7z
		 M87.5,5.7c0,0.9,0.4,1.6,1,1.6c0.6,0,1-0.6,1-1.6c0-0.9-0.4-1.5-1-1.5C87.9,4.2,87.5,4.8,87.5,5.7z M91.3,3.5l0,5.3l-0.3,0l0-5.3
		L91.3,3.5z"/>
	<path class="st0" d="M97.3,7.8l0,0.3l-4.8,0l0-0.3L97.3,7.8z M96.7,6.7l-3.6,0l0-2.7l3.5,0l0,0.3l-3.2,0l0,0.9l3.1,0l0,0.3l-3.1,0
		l0,1l3.3,0L96.7,6.7z"/>
	<path class="st0" d="M102.8,7.8l0,0.3l-4.8,0l0-0.3l2.2,0l0-1.1l-1.6,0l0-1.6l3.3,0l0-1l-3.3,0l0-0.3l3.6,0l0,1.5l-3.3,0l0,1l3.4,0
		l0,0.3l-1.8,0l0,1.1L102.8,7.8z"/>
	<path class="st0" d="M107.7,5.7c0,1.1-0.5,1.8-1.3,1.8c-0.8,0-1.3-0.7-1.3-1.8c0-1.1,0.5-1.8,1.3-1.8
		C107.2,3.9,107.7,4.6,107.7,5.7z M105.4,5.7c0,0.9,0.4,1.6,1,1.6c0.6,0,1-0.6,1-1.6c0-0.9-0.4-1.5-1-1.5
		C105.8,4.2,105.4,4.8,105.4,5.7z M109.2,3.4l0,5.3l-0.3,0l0-5.3L109.2,3.4z"/>
	<path class="st0" d="M115.2,6.1l0,0.3l-4.8,0l0-0.3l2.2,0l0-0.7l-1.6,0l0-1.7l3.6,0l0,0.3l-3.3,0l0,1.2l3.3,0l0,0.3l-1.7,0l0,0.7
		L115.2,6.1z M114.6,7.8c0,0.6-0.7,0.9-1.8,0.9c-1.1,0-1.8-0.3-1.8-0.9c0-0.6,0.7-0.9,1.8-0.9C113.9,6.9,114.6,7.2,114.6,7.8z
		 M114.3,7.8c0-0.4-0.6-0.7-1.5-0.7c-0.9,0-1.5,0.3-1.5,0.7c0,0.4,0.6,0.7,1.5,0.7C113.7,8.5,114.3,8.2,114.3,7.8z"/>
</g>
<g>
	<g>
		<path class="st1" d="M53.5,6.8C33.4,12.7,15.8,27.3,7.2,46.5c-0.1,0.2,0.2,0.4,0.3,0.2C17,27.7,33.1,13.3,53.6,7.3
			C53.9,7.2,53.8,6.7,53.5,6.8L53.5,6.8z"/>
	</g>
</g>
<g>
	<g>
		<path class="st1" d="M5.4,45.9c1.1,0.9,2.1,1.9,3.1,2.9c0-0.1,0.1-0.3,0.1-0.4c-1.6,0.5-3.2,0.9-4.8,1.3C4,49.8,4.1,49.9,4.2,50
			c0.3-1.6,0.8-3.1,1.3-4.6c0.1-0.3-0.3-0.4-0.4-0.2c-0.6,1.5-1.1,3.1-1.4,4.7c0,0.2,0.1,0.4,0.3,0.3c1.6-0.5,3.2-0.9,4.8-1.4
			c0.2-0.1,0.2-0.3,0.1-0.4c-1-1.1-2-2-3.1-2.9C5.6,45.3,5.2,45.7,5.4,45.9L5.4,45.9z"/>
	</g>
</g>
</svg>
