<svg xmlns="http://www.w3.org/2000/svg" xmlns:xlink="http://www.w3.org/1999/xlink" viewBox="0 0 120 120"><defs><style>.cls-1{fill:none;}.cls-2{fill:url(#linear-gradient);}.cls-3{fill:#626467;}</style><linearGradient id="linear-gradient" x1="20" y1="54.38" x2="100" y2="54.38" gradientUnits="userSpaceOnUse"><stop offset="0" stop-color="#4a017d"/><stop offset="1" stop-color="#f4136b"/></linearGradient></defs><title>Asset 30</title><g id="Layer_2" data-name="Layer 2"><g id="Layer_1-2" data-name="Layer 1"><rect class="cls-1" width="120" height="120"/><path class="cls-2" d="M64.05,77.86V77L65,77c1.84-.1,2.23-.14,2.23-6.58V55.15c0-6.44-.39-6.49-2.23-6.59l-1-.05v-.84h7.33V70.38c0,6.44.39,6.48,2.23,6.58l1,.05v.85Zm5.18-40.67a2.5,2.5,0,1,0,2.5,2.5A2.5,2.5,0,0,0,69.23,37.19ZM82,56.77a2.65,2.65,0,1,0,2.65,2.65A2.64,2.64,0,0,0,82,56.77ZM99,77c-1.84-.1-2.23-.14-2.23-6.58V62.8a7,7,0,0,0-4.11-6.56A12.29,12.29,0,0,0,87.17,55h-.36v.89h.41c3.62,0,5.45,1.94,5.45,5.3V67a13.75,13.75,0,0,0-6-1.19c-5.9,0-9,2-9,6.29,0,4.06,3.47,6.34,8,6.34a7.74,7.74,0,0,0,7.14-4v3.42H100V77Zm-6.34-3.81a6.89,6.89,0,0,1-5.7,4c-2.53,0-4.7-1.09-4.7-4.8,0-4.56,2.72-5.6,5.2-5.6a12,12,0,0,1,5.2,1.19ZM45.53,70.38V55.62H38.2v.84l1,0c1.83.1,2.23.14,2.23,6.59v7.28c0,6.44-.4,6.48-2.23,6.58l-1,.05v.85H48.75V77l-1-.05C45.92,76.86,45.53,76.82,45.53,70.38ZM60.68,77c-1.83-.1-2.23-.14-2.23-6.58V30.31l-4.17,4.17c0,.83.06,1.85.06,3.13V70.38c0,6.44-.4,6.48-2.23,6.58l-1,.05v.85H61.67V77ZM43.24,50.16a2.5,2.5,0,1,0-2.5-2.5A2.5,2.5,0,0,0,43.24,50.16ZM34.36,73.81c-.17,2.31-1.09,3.4-2.74,3.4-2.48,0-2.72-2.87-2.72-6.44V56.51H33v-.89H28.9v-8h0l-4.09,4.09v3.89H20.89l-.89.89h4.78V70.77c0,5.3,2.23,7.68,5.94,7.68,3.35,0,4.38-1.94,4.54-4.64Z"/><path class="cls-3" d="M32.4,89.68a2.72,2.72,0,0,1-.93-.16,2.32,2.32,0,0,1-.82-.5l.53-.64a3.06,3.06,0,0,0,.59.37,1.51,1.51,0,0,0,.65.13.8.8,0,0,0,.44-.1.33.33,0,0,0,.16-.29h0a.42.42,0,0,0,0-.16s-.06-.09-.12-.13l-.26-.11a2.11,2.11,0,0,0-.42-.13,5.6,5.6,0,0,1-.57-.17,1.59,1.59,0,0,1-.43-.23,1.06,1.06,0,0,1-.28-.35,1.29,1.29,0,0,1-.09-.51v0a1.25,1.25,0,0,1,.1-.51,1.14,1.14,0,0,1,.3-.39,1.46,1.46,0,0,1,.46-.26,1.77,1.77,0,0,1,.58-.08,2.45,2.45,0,0,1,.83.13,2.29,2.29,0,0,1,.7.39l-.47.68a4.23,4.23,0,0,0-.54-.3,1.47,1.47,0,0,0-.54-.1.61.61,0,0,0-.39.1.3.3,0,0,0-.13.26h0a.4.4,0,0,0,0,.17.47.47,0,0,0,.14.14,1.63,1.63,0,0,0,.28.11l.44.12a3.67,3.67,0,0,1,.56.19,1.5,1.5,0,0,1,.41.25.88.88,0,0,1,.25.33,1.19,1.19,0,0,1,.09.47v0a1.26,1.26,0,0,1-.11.55,1.07,1.07,0,0,1-.31.39,1.22,1.22,0,0,1-.48.25A2,2,0,0,1,32.4,89.68Z"/><path class="cls-3" d="M38.53,86.32H37.27v-.83H40.7v.83H39.44v3.3h-.91Z"/><path class="cls-3" d="M45.23,85.45h.84l1.78,4.17h-1l-.37-.93H44.77l-.38.93h-.93Zm1,2.44-.55-1.34-.55,1.34Z"/><path class="cls-3" d="M51.43,85.49h1.9a1.62,1.62,0,0,1,1.2.42,1.24,1.24,0,0,1,.35.94h0a1.33,1.33,0,0,1-.23.82,1.51,1.51,0,0,1-.66.47l1,1.47H54l-.89-1.32h-.71v1.32h-.92Zm1.84,2a.79.79,0,0,0,.52-.16.58.58,0,0,0,.17-.43h0a.55.55,0,0,0-.18-.45.92.92,0,0,0-.53-.15h-.9v1.2Z"/><path class="cls-3" d="M60.59,89.69a2.13,2.13,0,0,1-.84-.16,2,2,0,0,1-.67-.46,1.91,1.91,0,0,1-.44-.67,2.12,2.12,0,0,1-.16-.83v0a2,2,0,0,1,.16-.82,2.08,2.08,0,0,1,.44-.69,2.14,2.14,0,0,1,1.55-.63,2.92,2.92,0,0,1,.54,0,2.58,2.58,0,0,1,.42.13,2.64,2.64,0,0,1,.37.2,3.73,3.73,0,0,1,.3.26l-.58.67a1.88,1.88,0,0,0-.49-.34,1.18,1.18,0,0,0-.56-.13,1.3,1.3,0,0,0-.49.1,1.49,1.49,0,0,0-.38.28,1.55,1.55,0,0,0-.25.41,1.42,1.42,0,0,0-.08.5h0a1.35,1.35,0,0,0,.08.5,1.46,1.46,0,0,0,.25.42,1.34,1.34,0,0,0,.38.28,1.3,1.3,0,0,0,.49.1,1.26,1.26,0,0,0,.6-.13,2.92,2.92,0,0,0,.48-.35l.58.58a2.38,2.38,0,0,1-.33.31,2.92,2.92,0,0,1-.37.24,2.15,2.15,0,0,1-.45.14A2.34,2.34,0,0,1,60.59,89.69Z"/><path class="cls-3" d="M66,85.49h.91v1.63h1.68V85.49h.91v4.13h-.91V88H66.88v1.66H66Z"/><path class="cls-3" d="M80.12,89.68a1.64,1.64,0,0,1-1.79-1.83V85.49h.91v2.33a1.09,1.09,0,0,0,.24.77.84.84,0,0,0,.65.26.87.87,0,0,0,.66-.26,1,1,0,0,0,.24-.74V85.49h.9v2.33a2.57,2.57,0,0,1-.12.82,1.38,1.38,0,0,1-.37.58,1.28,1.28,0,0,1-.57.35A2.19,2.19,0,0,1,80.12,89.68Z"/><path class="cls-3" d="M73.58,85.49h.91v4.13h-.91Z"/><path class="cls-3" d="M85.77,85.49h1l1.08,1.75,1.09-1.75h1v4.13H89v-2.7l-1.15,1.76h0l-1.15-1.74v2.68h-.9Z"/></g></g></svg>