<svg xmlns="http://www.w3.org/2000/svg" viewBox="0 0 120 120"><defs><style>.cls-1{fill:#626467;}.cls-2{fill:none;}.cls-3{fill:#fff;}</style></defs><title>페이스북계정</title><g id="Layer_2" data-name="Layer 2"><g id="Layer_1-2" data-name="Layer 1"><rect class="cls-1" x="21.45" y="109.24" width="10" height="10" rx="2.5"/><rect class="cls-2" width="120" height="120"/><path class="cls-3" d="M28.47,119.24h0V115.4h1.4l.19-1.4H28.47v-.36a.8.8,0,0,1,.8-.8h.8v-1.6h-1.6a1.6,1.6,0,0,0-1.6,1.6V114H25.5v1.4h1.37v3.84Z"/><path class="cls-1" d="M37.45,110.91h4.23v.79h-3.3v2.48h2.8V115h-2.8v3.29h-.93Z"/><path class="cls-1" d="M42.17,116.83c0-1.18,1-1.77,3.34-2,0-.7-.23-1.36-1.12-1.36a3,3,0,0,0-1.63.58l-.36-.63a4.08,4.08,0,0,1,2.14-.71c1.32,0,1.88.88,1.88,2.22v3.34h-.75l-.08-.65h0a2.91,2.91,0,0,1-1.8.78A1.47,1.47,0,0,1,42.17,116.83Zm3.34.09V115.4c-1.83.22-2.45.67-2.45,1.37s.42.87,1,.87A2.22,2.22,0,0,0,45.51,116.92Z"/><path class="cls-1" d="M47.74,115.53a2.64,2.64,0,0,1,2.62-2.85,2.36,2.36,0,0,1,1.59.63l-.47.61a1.61,1.61,0,0,0-1.08-.48c-1,0-1.71.84-1.71,2.09s.68,2.08,1.68,2.08a1.91,1.91,0,0,0,1.28-.54l.4.61a2.63,2.63,0,0,1-1.76.69A2.55,2.55,0,0,1,47.74,115.53Z"/><path class="cls-1" d="M52.59,115.53A2.62,2.62,0,0,1,55,112.68c1.38,0,2.16,1,2.16,2.54a3.55,3.55,0,0,1,0,.52H53.5a1.8,1.8,0,0,0,1.8,1.9,2.34,2.34,0,0,0,1.36-.43l.33.6a3.23,3.23,0,0,1-1.8.56A2.6,2.6,0,0,1,52.59,115.53Zm3.81-.45c0-1.09-.5-1.67-1.35-1.67a1.66,1.66,0,0,0-1.56,1.67Z"/><path class="cls-1" d="M59.39,117.68h0l-.08.56h-.73v-7.95h.91v2.18l0,1a2.78,2.78,0,0,1,1.7-.76c1.41,0,2.17,1.09,2.17,2.75,0,1.87-1.11,2.94-2.36,2.94A2.41,2.41,0,0,1,59.39,117.68Zm3-2.23c0-1.2-.4-2-1.43-2a2.29,2.29,0,0,0-1.46.75V117a2.08,2.08,0,0,0,1.33.57C61.68,117.61,62.34,116.8,62.34,115.45Z"/><path class="cls-1" d="M64.31,115.53a2.54,2.54,0,1,1,2.52,2.84A2.6,2.6,0,0,1,64.31,115.53Zm4.1,0c0-1.25-.64-2.09-1.58-2.09s-1.57.84-1.57,2.09.63,2.08,1.57,2.08S68.41,116.78,68.41,115.53Z"/><path class="cls-1" d="M70.37,115.53a2.53,2.53,0,1,1,2.52,2.84A2.6,2.6,0,0,1,70.37,115.53Zm4.1,0c0-1.25-.64-2.09-1.58-2.09s-1.57.84-1.57,2.09.63,2.08,1.57,2.08S74.47,116.78,74.47,115.53Z"/><path class="cls-1" d="M76.84,110.29h.9v5.39h0l2.31-2.86h1L79.29,115l2,3.24h-1l-1.59-2.62-1,1.19v1.43h-.9Z"/><path class="cls-1" d="M84.24,116A4.7,4.7,0,0,1,88.9,111a3.46,3.46,0,0,1,3.66,3.69c0,2-1.22,3-2.23,3a1,1,0,0,1-1.14-.85h0a1.9,1.9,0,0,1-1.35.77c-.76,0-1.34-.57-1.34-1.59a2.46,2.46,0,0,1,2.15-2.58.94.94,0,0,1,.88.54h0l.13-.46h.59l-.43,2.23c-.21.9,0,1.31.6,1.31s1.51-.85,1.51-2.3a2.88,2.88,0,0,0-3.09-3.12,4.09,4.09,0,0,0-3.91,4.3,3.17,3.17,0,0,0,3.32,3.42,3.68,3.68,0,0,0,1.82-.5l.23.54a4,4,0,0,1-2.11.57A3.74,3.74,0,0,1,84.24,116Zm4.78.35.3-1.78a.75.75,0,0,0-.71-.47c-.88,0-1.42,1.06-1.42,1.9s.34,1,.79,1A1.48,1.48,0,0,0,89,116.32Z"/><path class="cls-1" d="M98.66,114.54a23.09,23.09,0,0,1-3.93.22h-.66v-3.52h3.86v.58H94.81v.87H97.7v.57H94.81v.91a22.38,22.38,0,0,0,3.77-.21Zm1.85,3.7v.58H95v-2h4.48V116H95v-.57h5.23v1.89H95.76v.88Zm-.27-3.16H99.5v-4.24h.74Z"/><path class="cls-1" d="M104,116.35a23.35,23.35,0,0,0,3.93-.29l.07.61a23.71,23.71,0,0,1-4.07.29h-.67v-3.09h3v-1.69h-3v-.6H107v2.88h-3Zm5.42-5.53v8.1h-.74v-8.1Z"/><path class="cls-1" d="M116.15,114.27c0,1.72-.84,2.82-2,2.82s-2-1.1-2-2.82.85-2.82,2-2.82S116.15,112.55,116.15,114.27Zm-.7,0c0-1.3-.55-2.15-1.32-2.15s-1.34.85-1.34,2.15.55,2.16,1.34,2.16S115.45,115.59,115.45,114.27Zm4.07.41h-1.33v4.23h-.74v-8.07h.74v3.22h1.33Z"/></g></g></svg>