<svg xmlns="http://www.w3.org/2000/svg" viewBox="0 0 170 170"><defs><style>.cls-1{fill:#d3c4c2;}.cls-2{fill:none;}</style></defs><title>페이스북</title><g id="Layer_2" data-name="Layer 2"><g id="Layer_1-2" data-name="Layer 1"><path class="cls-1" d="M99.66,47a8,8,0,0,1,8,8V85a8,8,0,0,1-8,8h-30a8,8,0,0,1-8-8V55a8,8,0,0,1,8-8h30m0-2h-30a10,10,0,0,0-10,10V85a10,10,0,0,0,10,10h30a10,10,0,0,0,10-10V55a10,10,0,0,0-10-10Z"/><rect class="cls-2" width="170" height="170"/><path class="cls-1" d="M100.78,57v4h-2a6,6,0,0,0-6,6v3.84h7.63l-.4,3H92.78V93h-4V73.77H81.89v-3h6.89V63a6,6,0,0,1,6-6h6m2-2h-8a8,8,0,0,0-8,8v5.81H79.89v7h6.89V95h8V75.77h7l.94-7H94.78V66.93a4,4,0,0,1,4-4h4V55Z"/><path class="cls-1" d="M67.68,122.75c.38,0,.78-.07,1.13-.12l.06.72a31.53,31.53,0,0,1-5.33.36l-.09-.81h1.09v-5.13h-.89V117h4.92v.79h-.89Zm-2.24.11c.44,0,.89,0,1.34,0v-5H65.44Zm4.28-7h.92v9.93h-.92v-5.23H68.25v-.86h1.47Zm3-.25v10.74h-.95V115.62Zm7.72,4.57c0,2.29-1.14,3.75-2.73,3.75S75,122.48,75,120.19s1.14-3.76,2.74-3.76S80.46,117.9,80.46,120.19Zm-4.53,0c0,1.75.74,2.88,1.8,2.88s1.78-1.13,1.78-2.88-.74-2.87-1.78-2.87S75.93,118.45,75.93,120.19Zm7.47-4.58v10.78h-1V115.61Zm12,8.5v.81H85.64v-.81Zm-.93-2.28a5.81,5.81,0,0,1-4-3.11,5.89,5.89,0,0,1-4,3.11L86,121c1.89-.37,3.91-2,3.91-3.82v-.83h1v.83c0,1.83,2,3.47,3.93,3.82Zm7.56-.16v1.26h3.18v3.45h-1v-2.65H97.75v-.8H101v-1.26H96.66v-.8h9.74v.8Zm3.11-1.79H98v-4h1v1.22h5.23v-1.22h1Zm-1-2H98.93v1.25h5.23Z"/></g></g></svg>