<svg xmlns="http://www.w3.org/2000/svg" viewBox="0 0 120 120"><defs><style>.cls-1{fill:#626467;}.cls-2{fill:none;}.cls-3{fill:#fff;}</style></defs><title>Asset 37</title><g id="Layer_2" data-name="Layer 2"><g id="Layer_1-2" data-name="Layer 1"><rect class="cls-1" y="109" width="10" height="10" rx="2.5"/><rect class="cls-2" width="120" height="120"/><path class="cls-3" d="M7,119H7v-3.84h1.4l.19-1.4H7v-.36a.8.8,0,0,1,.8-.8h.8V111H7a1.61,1.61,0,0,0-1.61,1.6v1.16H4.05v1.4H5.42V119Z"/><path class="cls-1" d="M16,110.67h4.23v.79h-3.3v2.48h2.8v.78h-2.8V118H16Z"/><path class="cls-1" d="M20.72,116.59c0-1.17,1-1.76,3.34-2,0-.7-.23-1.37-1.12-1.37a3,3,0,0,0-1.63.58l-.36-.63a4.08,4.08,0,0,1,2.14-.71c1.32,0,1.88.89,1.88,2.23V118h-.75l-.08-.65h0a2.91,2.91,0,0,1-1.8.78A1.47,1.47,0,0,1,20.72,116.59Zm3.34.09v-1.51c-1.83.22-2.45.66-2.45,1.37s.42.86,1,.86A2.22,2.22,0,0,0,24.06,116.68Z"/><path class="cls-1" d="M26.29,115.29a2.64,2.64,0,0,1,2.62-2.85,2.32,2.32,0,0,1,1.59.64l-.47.6A1.61,1.61,0,0,0,29,113.2c-1,0-1.71.85-1.71,2.09s.68,2.08,1.68,2.08a1.91,1.91,0,0,0,1.28-.54l.4.61a2.63,2.63,0,0,1-1.76.69A2.55,2.55,0,0,1,26.29,115.29Z"/><path class="cls-1" d="M31.14,115.29a2.62,2.62,0,0,1,2.45-2.85c1.38,0,2.16,1,2.16,2.55a3.29,3.29,0,0,1,0,.51H32.05a1.79,1.79,0,0,0,1.8,1.9,2.34,2.34,0,0,0,1.36-.43l.33.6a3.23,3.23,0,0,1-1.8.56A2.6,2.6,0,0,1,31.14,115.29Zm3.81-.44c0-1.09-.5-1.68-1.35-1.68A1.67,1.67,0,0,0,32,114.85Z"/><path class="cls-1" d="M37.94,117.44h0l-.08.56h-.73v-8H38v2.18l0,1a2.74,2.74,0,0,1,1.7-.77c1.41,0,2.17,1.1,2.17,2.76,0,1.86-1.11,2.93-2.36,2.93A2.41,2.41,0,0,1,37.94,117.44Zm3-2.22c0-1.2-.4-2-1.43-2A2.24,2.24,0,0,0,38,114v2.84a2.08,2.08,0,0,0,1.33.57C40.23,117.37,40.89,116.56,40.89,115.22Z"/><path class="cls-1" d="M42.86,115.29a2.54,2.54,0,1,1,2.52,2.84A2.6,2.6,0,0,1,42.86,115.29Zm4.1,0c0-1.24-.64-2.09-1.58-2.09s-1.57.85-1.57,2.09.63,2.08,1.57,2.08S47,116.54,47,115.29Z"/><path class="cls-1" d="M48.92,115.29a2.54,2.54,0,1,1,2.52,2.84A2.6,2.6,0,0,1,48.92,115.29Zm4.1,0c0-1.24-.64-2.09-1.58-2.09s-1.57.85-1.57,2.09.63,2.08,1.57,2.08S53,116.54,53,115.29Z"/><path class="cls-1" d="M55.39,110.05h.9v5.4h0l2.31-2.87h1l-1.81,2.19,2,3.23h-1l-1.59-2.61-1,1.18V118h-.9Z"/><path class="cls-1" d="M62.79,115.74a4.71,4.71,0,0,1,4.66-4.95,3.46,3.46,0,0,1,3.66,3.7c0,1.94-1.22,3-2.23,3a1,1,0,0,1-1.14-.85h0a1.94,1.94,0,0,1-1.36.77c-.76,0-1.34-.57-1.34-1.58,0-1.18.84-2.59,2.15-2.59a.94.94,0,0,1,.88.55h0l.13-.46h.59l-.43,2.23c-.21.9,0,1.3.6,1.3s1.51-.85,1.51-2.29a2.89,2.89,0,0,0-3.09-3.13,4.09,4.09,0,0,0-3.91,4.31,3.16,3.16,0,0,0,3.32,3.41,3.68,3.68,0,0,0,1.82-.5l.23.54a4,4,0,0,1-2.11.57A3.73,3.73,0,0,1,62.79,115.74Zm4.78.34.31-1.77a.77.77,0,0,0-.72-.47c-.88,0-1.42,1.06-1.42,1.9s.34,1,.79,1A1.48,1.48,0,0,0,67.57,116.08Z"/><path class="cls-1" d="M77.21,114.3a23.09,23.09,0,0,1-3.93.22h-.65V111h3.85v.58H73.36v.87h2.89V113H73.36v.91a22.38,22.38,0,0,0,3.77-.21Zm1.85,3.7v.58H73.58v-2h4.48v-.78h-4.5v-.57h5.23v1.89H74.31V118Zm-.27-3.16h-.74V110.6h.74Z"/><path class="cls-1" d="M82.55,116.11a24.32,24.32,0,0,0,3.93-.28l.07.6a23.74,23.74,0,0,1-4.07.3h-.67v-3.1h3V112h-3v-.61h3.74v2.88h-3ZM88,110.59v8.09h-.74v-8.09Z"/><path class="cls-1" d="M94.7,114c0,1.72-.83,2.82-2,2.82s-2-1.1-2-2.82.85-2.81,2-2.81S94.7,112.31,94.7,114Zm-.7,0c0-1.3-.55-2.15-1.32-2.15s-1.34.85-1.34,2.15.55,2.16,1.34,2.16S94,115.35,94,114Zm4.07.41H96.74v4.23H96V110.6h.74v3.22h1.33Z"/></g></g></svg>