<svg xmlns="http://www.w3.org/2000/svg" viewBox="0 0 120 120"><defs><style>.cls-1{fill:#d3c4c2;}.cls-2{fill:none;}</style></defs><title>페이스북</title><g id="Layer_2" data-name="Layer 2"><g id="Layer_1-2" data-name="Layer 1"><path class="cls-1" d="M74.66,22a8,8,0,0,1,8,8V60a8,8,0,0,1-8,8h-30a8,8,0,0,1-8-8V30a8,8,0,0,1,8-8h30m0-2h-30a10,10,0,0,0-10,10V60a10,10,0,0,0,10,10h30a10,10,0,0,0,10-10V30a10,10,0,0,0-10-10Z"/><rect class="cls-2" width="120" height="120"/><path class="cls-1" d="M75.78,32v4h-2a6,6,0,0,0-6,6v3.84h7.63l-.4,3H67.78V68h-4V48.77H56.89v-3h6.89V38a6,6,0,0,1,6-6h6m2-2h-8a8,8,0,0,0-8,8v5.81H54.89v7h6.89V70h8V50.77h7l.94-7H69.78V41.93a4,4,0,0,1,4-4h4V30Z"/><path class="cls-1" d="M42.68,97.75c.38,0,.78-.07,1.13-.12l.06.72a31.53,31.53,0,0,1-5.33.36l-.09-.81h1.09V92.76h-.89V92h4.92v.79h-.89Zm-2.24.11c.44,0,.89,0,1.34,0v-5H40.44Zm4.28-7h.92v9.93h-.92V95.57H43.25v-.86h1.47Zm3-.25v10.74h-1V90.62Zm7.72,4.57c0,2.29-1.14,3.75-2.73,3.75S50,97.48,50,95.19s1.14-3.76,2.74-3.76S55.46,92.9,55.46,95.19Zm-4.53,0c0,1.75.74,2.88,1.8,2.88s1.78-1.13,1.78-2.88-.74-2.87-1.78-2.87S50.93,93.45,50.93,95.19Zm7.47-4.58v10.78h-1V90.61Zm12,8.5v.81H60.64v-.81Zm-.93-2.28a5.81,5.81,0,0,1-4-3.11,5.89,5.89,0,0,1-4,3.11L61,96c1.89-.37,3.91-2,3.91-3.82v-.83h1v.83C66,94,68,95.66,69.91,96ZM77,96.67v1.26H80.2v3.45h-1V98.73H72.75v-.8H76V96.67H71.66v-.8H81.4v.8Zm3.11-1.79H73v-4h1v1.22h5.23V90.86h1Zm-1-2H73.93V94.1h5.23Z"/></g></g></svg>