<svg xmlns="http://www.w3.org/2000/svg" xmlns:xlink="http://www.w3.org/1999/xlink" viewBox="0 0 170 170"><defs><style>.cls-1{fill:url(#linear-gradient);}.cls-2{fill:none;}.cls-3{fill:url(#linear-gradient-2);}.cls-4{fill:url(#linear-gradient-3);}</style><linearGradient id="linear-gradient" x1="59.66" y1="69.95" x2="109.66" y2="69.95" gradientUnits="userSpaceOnUse"><stop offset="0" stop-color="#4a017d"/><stop offset="1" stop-color="#f4136b"/></linearGradient><linearGradient id="linear-gradient-2" x1="79.89" y1="74.95" x2="102.78" y2="74.95" xlink:href="#linear-gradient"/><linearGradient id="linear-gradient-3" x1="63.45" y1="121" x2="106.4" y2="121" xlink:href="#linear-gradient"/></defs><title>페이스북</title><g id="Layer_2" data-name="Layer 2"><g id="Layer_1-2" data-name="Layer 1"><path class="cls-1" d="M99.66,46a9,9,0,0,1,9,9V85a9,9,0,0,1-9,9h-30a9,9,0,0,1-9-9V55a9,9,0,0,1,9-9h30m0-1h-30a10,10,0,0,0-10,10V85a10,10,0,0,0,10,10h30a10,10,0,0,0,10-10V55a10,10,0,0,0-10-10Z"/><rect class="cls-2" width="170" height="170"/><path class="cls-3" d="M101.78,56v6h-3a5,5,0,0,0-5,5v2.84h7.77l-.67,5h-7.1V94h-6V74.77H80.89v-5h6.89V63a7,7,0,0,1,7-7h7m1-1h-8a8,8,0,0,0-8,8v5.81H79.89v7h6.89V95h8V75.77h7l.94-7H94.78V66.93a4,4,0,0,1,4-4h4V55Z"/><path class="cls-4" d="M83.4,115.61h-1v10.78h1V115.61Zm-10.66,0h-.95v10.74h.95V115.62Zm32.39.24h-1v1.22H98.93v-1.22H98v4h7.17v-4Zm-6.2,3.24v-1.25h5.23v1.25Zm-28.29-3.23h-.92v3.84H68.25v.86h1.47v5.23h.92v-9.93Zm20.34.49H90v.83c0,1.83-2,3.45-3.91,3.82l.45.82a5.89,5.89,0,0,0,4-3.11,5.81,5.81,0,0,0,4,3.11l.45-.82C93,120.66,91,119,91,117.19v-.83Zm-13.25.07c-1.6,0-2.74,1.47-2.74,3.76s1.14,3.75,2.74,3.75,2.73-1.46,2.73-3.75-1.14-3.76-2.73-3.76Zm0,6.64c-1.06,0-1.8-1.13-1.8-2.88s.74-2.87,1.8-2.87,1.78,1.13,1.78,2.87-.74,2.88-1.78,2.88ZM68.57,117H63.65v.79h.89v5.13H63.45l.09.81a31.53,31.53,0,0,0,5.33-.36l-.06-.72c-.35.05-.75.09-1.13.12v-5h.89V117Zm-3.13,5.89v-5.1h1.34v5c-.45,0-.9,0-1.34,0Zm41-2H96.66v.8H101v1.26H97.75v.8h6.47v2.65h1v-3.45H102v-1.26h4.38v-.8Zm-11,3.24H85.64v.81h9.75v-.81Z"/></g></g></svg>