<?xml version="1.0" encoding="utf-8"?>
<!-- Generator: Adobe Illustrator 24.0.0, SVG Export Plug-In . SVG Version: 6.00 Build 0)  -->
<svg version="1.1" id="Layer_1" xmlns="http://www.w3.org/2000/svg" xmlns:xlink="http://www.w3.org/1999/xlink" x="0px" y="0px"
	 viewBox="0 0 170 110" style="enable-background:new 0 0 170 110;" xml:space="preserve">
<style type="text/css">
	.st0{fill:url(#SVGID_1_);}
	.st1{fill:none;}
	.st2{fill:url(#SVGID_2_);}
	.st3{fill:url(#SVGID_3_);}
</style>
<title>페이스북</title>
<g id="Layer_2_1_">
	<g id="Layer_1-2">
		
			<linearGradient id="SVGID_1_" gradientUnits="userSpaceOnUse" x1="59.66" y1="72" x2="109.66" y2="72" gradientTransform="matrix(1 0 0 -1 0 112)">
			<stop  offset="0" style="stop-color:#4A017D"/>
			<stop  offset="1" style="stop-color:#F4136B"/>
		</linearGradient>
		<path class="st0" d="M99.7,16c5,0,9,4,9,9l0,0v30c0,5-4,9-9,9h-30c-5,0-9-4-9-9V25c0-5,4-9,9-9l0,0H99.7 M99.7,15h-30
			c-5.5,0-10,4.5-10,10v30c0,5.5,4.5,10,10,10h30c5.5,0,10-4.5,10-10V25C109.7,19.5,105.2,15,99.7,15z"/>
		<rect y="-30" class="st1" width="170" height="170"/>
		
			<linearGradient id="SVGID_2_" gradientUnits="userSpaceOnUse" x1="79.89" y1="67" x2="102.78" y2="67" gradientTransform="matrix(1 0 0 -1 0 112)">
			<stop  offset="0" style="stop-color:#4A017D"/>
			<stop  offset="1" style="stop-color:#F4136B"/>
		</linearGradient>
		<path class="st2" d="M101.8,26v6h-3c-2.8,0-5,2.2-5,5v2.8h7.8l-0.7,5h-7.1V64h-6V44.8h-6.9v-5h6.9V33c0-3.9,3.1-7,7-7H101.8
			 M102.8,25h-8c-4.4,0-8,3.6-8,8v5.8h-6.9v7h6.9V65h8V45.8h7l0.9-7h-7.9v-1.8c0-2.2,1.8-4,4-4h4V25z"/>
		
			<linearGradient id="SVGID_3_" gradientUnits="userSpaceOnUse" x1="63.45" y1="20.995" x2="106.44" y2="20.995" gradientTransform="matrix(1 0 0 -1 0 112)">
			<stop  offset="0" style="stop-color:#4A017D"/>
			<stop  offset="1" style="stop-color:#F4136B"/>
		</linearGradient>
		<path class="st3" d="M83.4,85.6h-1v10.8h1V85.6z M72.7,85.6h-0.9v10.7h0.9V85.6L72.7,85.6z M105.1,85.8h-1v1.2h-5.2v-1.2H98v4h7.2
			L105.1,85.8L105.1,85.8z M98.9,89.1v-1.2h5.2v1.2H98.9z M70.6,85.9h-0.9v3.8h-1.5v0.9h1.5v5.2h0.9C70.6,95.8,70.6,85.9,70.6,85.9z
			 M91,86.3h-1v0.8c0,1.8-2,3.4-3.9,3.8l0.4,0.8c1.7-0.4,3.2-1.5,4-3.1c0.8,1.6,2.3,2.7,4,3.1L95,91c-2-0.3-4-2-4-3.8L91,86.3
			L91,86.3z M77.7,86.4c-1.6,0-2.7,1.5-2.7,3.8s1.1,3.8,2.7,3.8s2.7-1.5,2.7-3.8S79.3,86.4,77.7,86.4z M77.7,93.1
			c-1.1,0-1.8-1.1-1.8-2.9s0.7-2.9,1.8-2.9s1.8,1.1,1.8,2.9S78.8,93.1,77.7,93.1z M68.6,87h-4.9v0.8h0.9v5.1h-1.1l0.1,0.8
			c1.8,0,3.6-0.1,5.3-0.4l-0.1-0.7c-0.3,0.1-0.8,0.1-1.1,0.1v-5h0.9C68.6,87.8,68.6,87,68.6,87z M65.4,92.9v-5.1h1.3v5
			C66.3,92.8,65.9,92.8,65.4,92.9L65.4,92.9z M106.4,90.9h-9.8v0.8h4.3V93h-3.2v0.8h6.5v2.7h1V93H102v-1.3h4.4L106.4,90.9
			L106.4,90.9z M95.4,94.1h-9.8v0.8h9.8L95.4,94.1L95.4,94.1z"/>
	</g>
</g>
</svg>
